<svg xmlns="http://www.w3.org/2000/svg" version="1.1" xmlns:xlink="http://www.w3.org/1999/xlink" xmlns:svgjs="http://svgjs.dev/svgjs" width="1000" height="1000" viewBox="0 0 1000 1000"><rect width="1000" height="1000" fill="#ffffff"></rect><g transform="matrix(0.7,0,0,0.7,150.0000000000001,106.25)"><svg viewBox="0 0 320 360" data-background-color="#ffffff" preserveAspectRatio="xMidYMid meet" height="1125" width="1000" xmlns="http://www.w3.org/2000/svg" xmlns:xlink="http://www.w3.org/1999/xlink"><g id="tight-bounds" transform="matrix(1,0,0,1,0,0)"><svg viewBox="0 0 320 360" height="360" width="320"><g><svg></svg></g><g><svg viewBox="0 0 320 360" height="360" width="320"><g><path d="M20.961 227.22l3.726 4.658-1.863-6.056c-0.466-2.795-3.726 0.466-1.863 1.398M25.153 224.425c1.397 2.329 2.795 4.658 2.795 6.987 0 3.261 2.795 4.658 5.123 5.589-3.261-3.726-5.124-13.974-7.918-12.576M204.017 26.929c7.918 0 15.371-0.932 23.756 0.931 20.495 5.124 37.729 15.371 49.374 29.811l32.606 52.169c1.397 13.042 4.192 27.482 3.726 43.319 3.261 0 2.795-4.658 6.521-5.59-3.726 9.316-5.59 20.961-6.521 34.469-2.329-7.453 0-18.632 0.466-24.687-3.261 5.124-5.124 1.397-5.124-0.932 0.466-3.726-1.397-3.261-2.795-4.658-5.124-4.658-8.384-9.782-12.11-17.7 2.329-6.055 2.795-14.905-4.658-19.563-2.329-1.397-5.124-3.726-6.521-7.453-1.863-5.124-5.124-11.179-4.193-19.097 0.466-2.329-6.987 5.124-11.179 1.863-18.166-12.576-36.332-27.016-58.224-39.127-11.645 0-20.029-4.192-24.221-9.316-3.726-4.658-0.932-10.713 4.658-11.179 3.261 0 6.987-0.932 9.782 0.932 0.466-1.863 2.329-4.192 4.657-4.192M157.904 16.215l0.932 0.466c4.658 0.932 6.987 7.453 12.11 5.124 0 3.261 0.466 6.521-0.466 8.85-1.397 3.726-5.59 3.726-8.85 3.726-31.208-1.863-49.374 11.179-68.471 22.358-5.124 3.261-10.713 5.59-14.906 9.782-20.029 18.632-41.921 35.866-47.045 70.335l-4.192 38.195c-0.466 4.192-5.124 8.384-4.192 13.508l3.26 22.824c-3.261-3.261-5.124 0.932-4.192 2.795 0.466 1.397 2.329 6.055 5.124 1.863 3.726 6.987 7.453 20.495 12.576 26.55 15.837 18.632 36.332 35.4 53.101 52.169 4.192-0.932 7.453-0.932 8.384-3.727 1.397 2.795-1.397 5.59-3.726 6.056 7.453 4.658 15.837 8.85 27.016 9.781 14.44 0.932 27.948 3.261 40.524 6.522 6.521-1.863 13.042-2.795 20.029-3.261 2.329 0 3.726-3.726 6.521-4.658l0.466-4.658c2.795 4.192 2.329-1.397 0.466-4.192 3.261 2.795 4.192 5.124 5.589 6.987 0-1.397 3.726-6.521 3.727-0.466l0.931-6.055c1.397-0.932 1.863 5.124 3.261 0.931 1.397-4.192 4.192-0.932 6.987-2.329-0.932 1.863-0.466 5.59 2.794 3.261l3.727-3.261c2.329 5.59 6.055 3.261 7.918 2.329 20.495-13.042 40.99-28.413 60.553-43.784l-0.466 6.055 2.329-7.453c2.329 2.329 4.192 0.466 5.124-0.931 2.795-4.658 6.521-9.316 12.577-13.508-7.453 20.029-16.303 35.866-27.482 48.908l-4.658 5.59c0 3.261-0.932 7.453-4.658 7.918-1.863 0.466-5.59-0.932-8.384 1.863-1.397 1.863 3.261 5.59-0.466 2.795-3.261-2.329-6.521 0-10.248 0.932-2.795 0.932 1.863 3.726 2.795 5.589 0.932 1.863 1.863 3.726 1.398 6.056l-5.124-5.59c-6.055 3.261-9.782 9.316-14.906 13.974-2.329 1.863-1.397 5.124-1.397 7.918-3.261 0-6.987-0.932-8.85 0.932-1.397 1.863-0.932 4.658-0.932 7.453-4.658-0.466-5.124-7.453-9.315-6.056-4.192 0.932-8.85 1.397-12.577 3.727 2.795 5.59-4.658 2.329-3.726 3.26-6.987-4.192-13.042-7.453-20.495-4.658-15.837-5.124-35.4-2.795-49.84-0.931 0-2.329 0.466-4.658-0.466-5.124-0.932 2.329-3.726 1.397-3.26 1.397-8.85-6.055-17.7-9.782-27.016-14.905-8.384 0.932-16.303-3.261-18.632-5.59-6.521-6.055-13.974-2.795-20.029-4.192-13.042-3.261-17.7-16.769-19.098-26.084-0.932-4.658-4.658-6.521-6.055-6.056-6.055-19.563-15.371-37.263-22.824-55.429-1.863-4.658-1.397-9.316-1.397-14.44 2.329 0.932 4.658 0.466 4.192-2.794-2.329-15.371-7.918-27.016-13.974-38.195 3.261-15.837 3.726-34.469 11.179-48.443 6.521-12.576 18.632-19.098 27.016-29.811 2.795-3.726 2.795-8.85 5.59-12.11 9.316-9.316 18.632-19.098 28.879-27.482 4.658-3.726 10.247 0 17.234-1.397 2.329-8.384 11.645-15.837 20.495-13.508 3.726 0.932 11.179-8.85 13.508-9.782 3.726-1.397 1.863 3.726 1.863 6.987 8.85-6.987 20.961-10.713 32.14-14.906" fill="#755bb4" fill-rule="nonzero" stroke="none" stroke-width="1" stroke-linecap="butt" stroke-linejoin="miter" stroke-miterlimit="10" stroke-dasharray="" stroke-dashoffset="0" font-family="none" font-weight="none" font-size="none" text-anchor="none" style="mix-blend-mode: normal" data-fill-palette-color="tertiary"></path></g><g transform="matrix(1,0,0,1,64,169.11085714285716)"><svg viewBox="0 0 192 21.778285714285712" height="21.778285714285712" width="192"><g><svg viewBox="0 0 192 21.778285714285712" height="21.778285714285712" width="192"><g><svg viewBox="0 0 192 21.778285714285712" height="21.778285714285712" width="192"><g><svg viewBox="0 0 192 21.778285714285712" height="21.778285714285712" width="192"><g><svg viewBox="0 0 192 21.778285714285712" height="21.778285714285712" width="192"><g><svg viewBox="0 0 192 21.778285714285712" height="21.778285714285712" width="192"><g transform="matrix(1,0,0,1,0,0)"><svg width="192" viewBox="0.49 -37.7 341.76 38.77" height="21.778285714285712" data-palette-color="#755bb4"><path d="M17.87-5.62L17.87-5.62Q17.77-5.32 17.77-5.08L17.77-5.08Q17.77-4.79 17.85-4.49 17.92-4.2 17.92-3.91L17.92-3.91Q17.82-3.03 17.77-2.83L17.77-2.83Q17.48-2.59 16.58-2.27 15.67-1.95 14.43-1.64 13.18-1.32 11.74-1 10.3-0.68 8.98-0.39 7.67-0.1 6.57 0.12 5.47 0.34 4.93 0.44L4.93 0.44Q4.69 0.49 4.47 0.56 4.25 0.63 4 0.73L4 0.73Q3.76 0.78 3.52 0.76 3.27 0.73 3.03 0.83L3.03 0.83Q2.88 0.83 2.76 0.68 2.64 0.54 2.54 0.44L2.54 0.44Q2.54 0.15 2.44 0 2.34-0.15 2.22-0.24 2.1-0.34 2-0.46 1.9-0.59 1.9-0.88L1.9-0.88Q1.81-1.27 1.64-1.49 1.46-1.71 1.46-1.9L1.46-1.9Q1.27-2.54 1.27-3.03L1.27-3.03Q1.27-3.27 1.32-3.42 1.37-3.56 1.46-3.71L1.46-3.71Q1.76-3.81 1.9-3.96 2.05-4.1 2.29-4.2L2.29-4.2Q2.59-4.35 3.13-4.47 3.66-4.59 4.3-4.74 4.93-4.88 5.52-5.03 6.1-5.18 6.49-5.32L6.49-5.32Q6.64-5.37 6.79-5.37 6.93-5.37 7.03-5.47L7.03-5.47Q6.93-6.25 6.91-7.03 6.88-7.81 6.79-8.54L6.79-8.54Q6.79-8.89 6.74-9.23 6.69-9.57 6.69-9.86L6.69-9.86 6.74-10.89Q6.74-12.74 6.59-14.6 6.45-16.46 6.45-18.31L6.45-18.31 6.45-19.97Q6.45-20.36 6.42-20.7 6.4-21.04 6.4-21.44L6.4-21.44Q6.4-22.36 6.42-23.22 6.45-24.07 6.45-25L6.45-25 6.45-29.49Q5.37-29.74 4.44-29.47 3.52-29.2 2.54-29.1L2.54-29.1Q2.2-29.44 2.15-29.83L2.15-29.83Q1.76-30.37 1.61-30.52 1.46-30.66 1.27-31.35L1.27-31.35Q0.93-32.03 0.71-32.2 0.49-32.37 0.49-32.76L0.49-32.76Q0.49-33.01 0.61-33.11 0.73-33.2 0.83-33.45L0.83-33.45Q1.27-33.64 1.34-33.72 1.42-33.79 1.51-33.84L1.51-33.84Q2-34.18 2.64-34.33 3.27-34.47 3.86-34.67L3.86-34.67Q4.35-34.81 4.79-35.01 5.22-35.21 5.76-35.35L5.76-35.35Q6.4-35.55 7.03-35.74 7.67-35.94 8.25-36.08L8.25-36.08Q8.64-36.18 9.01-36.16 9.38-36.13 9.77-36.38L9.77-36.38Q10.4-36.28 11.11-36.4 11.82-36.52 12.65-36.72 13.48-36.91 14.26-37.06 15.04-37.21 15.43-37.3L15.43-37.3Q15.67-37.21 15.77-37.06 15.87-36.91 16.06-36.87L16.06-36.87Q16.11-36.72 16.16-36.5 16.21-36.28 16.36-36.18L16.36-36.18Q16.36-35.64 16.6-35.4L16.6-35.4Q16.55-34.91 16.77-34.3 16.99-33.69 16.99-33.15L16.99-33.15Q16.75-32.42 16.19-32.23 15.63-32.03 14.97-31.88 14.31-31.74 13.67-31.62 13.04-31.49 12.65-31.35L12.65-31.35Q12.65-30.66 12.67-29.93 12.7-29.2 12.7-28.47L12.7-28.47Q12.7-27.78 12.67-27.1 12.65-26.42 12.65-25.73L12.65-25.73Q12.65-24.71 12.62-23.63 12.6-22.56 12.6-21.48L12.6-21.48Q12.6-19.97 12.65-18.46 12.7-16.94 12.79-15.43L12.79-15.43Q12.84-15.19 12.84-14.7L12.84-14.7Q12.84-12.74 12.92-10.86 12.99-8.98 13.18-6.98L13.18-6.98Q13.82-6.93 14.16-7.18L14.16-7.18Q14.4-7.18 14.62-7.28 14.84-7.37 15.04-7.47L15.04-7.47Q15.33-7.52 15.84-7.64 16.36-7.76 16.5-7.76L16.5-7.76Q16.94-7.71 17.04-7.76L17.04-7.76Q17.19-7.47 17.48-7.32L17.48-7.32Q17.58-6.88 17.65-6.47 17.72-6.05 17.87-5.62ZM43.41-36.67L43.41-36.67Q43.94-36.67 44.19-36.52L44.19-36.52Q44.43-36.04 44.5-35.67 44.58-35.3 44.58-34.81L44.58-34.81Q44.63-34.08 44.6-33.76 44.58-33.45 44.53-33.11L44.53-33.11Q44.48-32.32 44.48-31.62 44.48-30.91 44.48-30.13L44.48-30.13Q44.48-28.42 44.53-26.66 44.58-24.9 44.58-23.19L44.58-23.19Q44.58-22.51 44.55-21.85 44.53-21.19 44.53-20.51L44.53-20.51Q44.53-20.36 44.55-20.19 44.58-20.02 44.58-19.87L44.58-19.87Q44.58-19.43 44.55-19.02 44.53-18.6 44.53-18.21L44.53-18.21Q44.53-18.02 44.53-17.87 44.53-17.72 44.58-17.48L44.58-17.48Q44.48-17.09 44.48-16.94L44.48-16.94Q44.48-16.16 44.53-15.36 44.58-14.55 44.58-13.77L44.58-13.77Q44.58-13.04 44.6-12.35 44.63-11.67 44.63-10.94L44.63-10.94Q44.63-10.55 44.6-10.11 44.58-9.67 44.58-9.23L44.58-9.23Q44.58-8.2 44.63-7.15 44.68-6.1 44.72-5.08L44.72-5.08Q44.72-4.39 44.72-3.74 44.72-3.08 44.82-2.39L44.82-2.39Q44.82-1.61 44.75-1.25 44.68-0.88 44.58-0.54L44.58-0.54Q44.19-0.44 44.06-0.46 43.94-0.49 43.8-0.49L43.8-0.49Q43.11-0.29 42.92-0.12 42.72 0.05 42.48 0.24L42.48 0.24Q42.28 0.24 42.01 0.27 41.75 0.29 41.6 0.44L41.6 0.44Q41.35 0.34 41.21 0.39 41.06 0.44 40.92 0.44L40.92 0.44Q40.23 0.49 39.99 0.61 39.74 0.73 39.3 0.73L39.3 0.73Q38.91 0.1 38.72-0.27 38.52-0.63 38.08-0.59L38.08-0.59Q37.45-1.56 37.18-2.64 36.91-3.71 36.28-4.59L36.28-4.59Q36.23-4.98 36.13-5.08 36.03-5.18 35.94-5.47L35.94-5.47Q35.74-5.86 35.59-6.3 35.45-6.74 35.2-7.13L35.2-7.13Q34.81-7.96 34.42-8.76 34.03-9.57 33.69-10.45L33.69-10.45Q33.54-10.84 33.44-11.25 33.35-11.67 33.2-12.06L33.2-12.06Q33.1-12.26 32.98-12.45 32.86-12.65 32.76-12.79L32.76-12.79Q32.47-13.33 32.2-13.87 31.93-14.4 31.59-14.94L31.59-14.94Q31.49-15.19 31.32-15.41 31.15-15.63 30.95-15.87L30.95-15.87Q30.81-16.21 30.69-16.55 30.56-16.89 30.42-17.24L30.42-17.24Q30.32-17.53 30.12-17.85 29.93-18.16 29.83-18.46L29.83-18.46Q29.73-18.7 29.68-18.95 29.64-19.19 29.39-19.38L29.39-19.38Q29.05-18.8 29.05-18.6L29.05-18.6Q29-18.02 28.98-17.65 28.95-17.29 28.95-16.99L28.95-16.99Q28.95-16.65 29.03-16.33 29.1-16.02 29.1-15.72L29.1-15.72Q29.2-14.55 29.25-13.35 29.29-12.16 29.29-10.99L29.29-10.99Q29.25-10.06 29.27-9.57 29.29-9.08 29.34-8.59L29.34-8.59Q29.39-8.11 29.37-7.59 29.34-7.08 29.39-6.59L29.39-6.59Q29.39-5.47 29.42-4.42 29.44-3.37 29.44-2.25L29.44-2.25 29.44-1.07Q29.44-0.54 29.29-0.1L29.29-0.1Q28.56-0.1 28.34-0.15 28.12-0.2 27.88-0.29L27.88-0.29Q27.59-0.24 27.41-0.07 27.24 0.1 27 0.24L27 0.24Q26.46 0.2 26.41 0.27 26.36 0.34 26.22 0.44L26.22 0.44Q26.07 0.49 25.95 0.44 25.83 0.39 25.68 0.39L25.68 0.39Q25.29 0.29 25.05 0.29L25.05 0.29Q24.75 0.39 24.48 0.49 24.22 0.59 23.92 0.63L23.92 0.63Q23.63 0.1 23.58-0.63 23.53-1.37 23.19-1.9L23.19-1.9Q23.29-2.1 23.31-2.15 23.34-2.2 23.34-2.44L23.34-2.44Q23.34-3.56 23.29-4.69 23.24-5.81 23.24-6.93L23.24-6.93Q23.24-7.86 23.12-8.74 23-9.62 23-10.55L23-10.55Q23-10.84 23.04-11.13 23.09-11.43 23.09-11.77L23.09-11.77Q23.09-11.91 23.07-12.06 23.04-12.21 23.04-12.3L23.04-12.3Q22.95-13.18 22.92-14.11 22.9-15.04 22.9-15.97L22.9-15.97Q22.85-16.5 22.82-17.09 22.8-17.68 22.8-18.31L22.8-18.31Q22.8-18.55 22.85-18.85 22.9-19.14 22.9-19.43L22.9-19.43 22.9-21.48Q22.8-22.07 22.82-22.27 22.85-22.46 22.85-22.66L22.85-22.66Q22.85-23.1 22.78-23.51 22.7-23.93 22.7-24.41L22.7-24.41Q22.7-24.76 22.78-25.07 22.85-25.39 22.85-25.73L22.85-25.73Q22.85-26.46 22.78-27.15 22.7-27.83 22.7-28.56L22.7-28.56 22.7-32.71Q22.7-33.06 22.65-33.4 22.6-33.74 22.6-34.13L22.6-34.13Q22.9-34.81 23.14-34.84 23.39-34.86 23.58-35.01L23.58-35.01Q24.12-34.91 24.51-35.11L24.51-35.11Q25.14-35.06 25.29-35.25L25.29-35.25Q25.39-35.16 25.56-35.18 25.73-35.21 25.88-35.16L25.88-35.16Q26.02-35.25 26.12-35.35 26.22-35.45 26.41-35.55L26.41-35.55Q26.95-35.84 27.05-35.91 27.15-35.99 27.29-36.08L27.29-36.08Q27.54-36.08 27.61-35.94 27.68-35.79 27.93-35.79L27.93-35.79Q28.02-35.6 28.17-35.4 28.32-35.21 28.51-35.11L28.51-35.11Q28.9-34.28 29.44-33.69L29.44-33.69Q29.88-32.42 30.44-31.25 31-30.08 31.64-28.91L31.64-28.91Q31.64-28.76 31.69-28.54 31.74-28.32 31.78-28.22L31.78-28.22Q32.03-27.69 32.49-26.83 32.96-25.98 33.3-25.44L33.3-25.44Q33.4-25.24 33.54-25.1 33.69-24.95 33.79-24.76L33.79-24.76Q33.93-24.51 34.03-24.22 34.13-23.93 34.27-23.68L34.27-23.68Q34.52-23.1 34.84-22.53 35.15-21.97 35.5-21.39L35.5-21.39Q35.59-21.09 35.72-20.8 35.84-20.51 35.98-20.21L35.98-20.21Q36.37-19.34 36.69-18.87 37.01-18.41 37.16-17.87L37.16-17.87Q37.5-17.48 37.69-17.02 37.89-16.55 38.28-16.26L38.28-16.26Q38.33-16.5 38.38-17.7 38.43-18.9 38.43-20.31 38.43-21.73 38.43-23 38.43-24.27 38.43-24.71L38.43-24.71Q38.43-26.03 38.38-27.32 38.33-28.61 38.33-29.88L38.33-29.88Q38.33-30.91 38.35-31.96 38.38-33.01 38.43-34.03L38.43-34.03Q38.47-34.57 38.45-35.03 38.43-35.5 38.47-35.99L38.47-35.99Q38.52-36.23 38.67-36.47 38.82-36.72 38.91-36.96L38.91-36.96Q39.55-37.06 39.89-36.72L39.89-36.72Q40.18-36.87 40.6-36.87 41.01-36.87 41.31-36.91L41.31-36.91Q41.7-36.96 41.75-36.99 41.79-37.01 41.89-37.01L41.89-37.01Q42.09-36.91 42.26-36.87 42.43-36.82 42.67-36.72L42.67-36.72Q43.11-36.87 43.41-36.67ZM67.91-37.55L67.91-37.55Q68.31-37.55 68.48-37.38 68.65-37.21 68.75-36.96L68.75-36.96Q69.23-37.01 69.75-36.79 70.26-36.57 70.36-36.38L70.36-36.38Q70.75-36.33 70.84-36.18 70.94-36.04 71.14-35.99L71.14-35.99 71.67-36.04Q71.87-35.84 72.43-35.64 72.99-35.45 73.09-35.21L73.09-35.21Q72.99-34.96 73.02-34.69 73.04-34.42 73.04-34.08L73.04-34.08Q72.9-33.35 72.58-32.76 72.26-32.18 72.02-31.64L72.02-31.64Q71.87-31.4 71.8-31.1 71.72-30.81 71.63-30.57L71.63-30.57Q71.53-30.37 71.45-30.2 71.38-30.03 71.28-29.83L71.28-29.83Q71.28-29.59 71.19-29.32 71.09-29.05 70.99-28.81L70.99-28.81Q70.99-28.52 70.94-28.39 70.89-28.27 70.89-28.17L70.89-28.17Q69.97-25.93 69.43-23.97 68.89-22.02 68.35-20.07L68.35-20.07Q68.11-19.48 67.87-18.6 67.62-17.72 67.26-16.53 66.89-15.33 66.47-13.99 66.06-12.65 65.69-11.5 65.33-10.35 65.06-9.55 64.79-8.74 64.74-8.64L64.74-8.64Q64.59-7.81 64.3-6.96 64.01-6.1 63.81-5.18L63.81-5.18Q63.57-4.88 63.52-4.52 63.47-4.15 63.28-3.81L63.28-3.81Q62.89-3.86 62.64-3.61L62.64-3.61Q62.59-3.22 62.71-2.88 62.84-2.54 62.84-2.15L62.84-2.15Q62.64-1.61 62.35-1.46 62.06-1.32 61.96-0.98L61.96-0.98Q61.62-1.07 61.45-0.88 61.27-0.68 61.08-0.68L61.08-0.68Q60.49-0.83 60.4-0.49L60.4-0.49Q60.1-0.59 60-0.42 59.91-0.24 59.81-0.2L59.81-0.2Q59.42-0.2 59.2-0.02 58.98 0.15 58.69 0.2L58.69 0.2Q58.49 0.1 58.3-0.02 58.1-0.15 57.95-0.29L57.95-0.29Q57.66-1.12 57.42-1.93 57.17-2.73 56.93-3.56L56.93-3.56Q56.83-3.96 56.68-4.3 56.54-4.64 56.44-5.03L56.44-5.03Q56.39-5.27 56.39-5.44 56.39-5.62 56.34-5.81L56.34-5.81Q56.25-6.05 56.15-6.3 56.05-6.54 55.95-6.79L55.95-6.79Q55.56-7.86 55.37-8.98L55.37-8.98Q55.12-9.81 54.9-10.62 54.68-11.43 54.49-12.26L54.49-12.26Q54.34-12.94 54.15-13.7 53.95-14.45 53.66-15.04L53.66-15.04Q53.56-15.82 53.24-16.53 52.92-17.24 52.92-17.97L52.92-17.97Q52.68-18.75 52.51-19.53 52.34-20.31 52.09-21.09L52.09-21.09Q52-21.48 51.85-21.83 51.7-22.17 51.61-22.51L51.61-22.51Q51.46-22.95 51.36-23.44 51.26-23.93 51.17-24.41L51.17-24.41Q51.02-24.85 50.87-25.27 50.73-25.68 50.58-26.12L50.58-26.12Q50.34-26.95 50.12-27.76 49.9-28.56 49.65-29.39L49.65-29.39Q49.41-30.32 49.19-31.23 48.97-32.13 48.43-32.96L48.43-32.96Q48.29-33.2 48.21-33.52 48.14-33.84 47.99-34.13L47.99-34.13Q48.09-34.52 48.04-35.03 47.99-35.55 48.19-35.84L48.19-35.84Q48.68-35.84 49.36-35.86 50.04-35.89 50.39-35.79L50.39-35.79Q50.58-35.84 50.7-35.94 50.83-36.04 51.02-36.08L51.02-36.08Q51.31-35.94 51.61-35.94L51.61-35.94Q52.05-35.94 52.29-36.13L52.29-36.13Q52.83-35.89 52.88-36.04 52.92-36.18 53.12-36.18L53.12-36.18Q53.41-36.08 53.56-35.77 53.71-35.45 53.85-35.21L53.85-35.21Q54.39-34.23 54.66-33.28 54.93-32.32 55.22-31.25L55.22-31.25Q55.56-30.27 55.85-29.32 56.15-28.37 56.39-27.39L56.39-27.39Q56.54-26.9 56.64-26.42 56.73-25.93 56.83-25.44L56.83-25.44Q56.98-24.9 57.17-24.44 57.37-23.97 57.56-23.44L57.56-23.44Q57.66-22.9 57.76-22.39 57.86-21.88 58-21.34L58-21.34Q58.1-20.95 58.25-20.61 58.39-20.26 58.49-19.87L58.49-19.87Q58.59-19.48 58.69-19.07 58.78-18.65 58.88-18.26L58.88-18.26Q59.13-17.29 59.42-16.33 59.71-15.38 59.96-14.4L59.96-14.4Q60.2-14.55 60.25-14.94 60.3-15.33 60.44-15.58L60.44-15.58Q60.54-16.16 60.76-16.85 60.98-17.53 61.18-18.12L61.18-18.12Q61.23-18.36 61.3-18.55 61.37-18.75 61.47-18.99L61.47-18.99Q61.62-19.29 61.66-19.6 61.71-19.92 61.81-20.26L61.81-20.26Q62.01-20.95 62.23-21.63 62.45-22.31 62.64-23L62.64-23Q62.84-23.63 62.98-24.32 63.13-25 63.37-25.59L63.37-25.59Q63.62-26.12 63.79-26.61 63.96-27.1 64.11-27.64L64.11-27.64Q64.25-28.17 64.35-28.71 64.45-29.25 64.69-29.69L64.69-29.69Q64.79-29.93 64.91-30.25 65.03-30.57 65.13-30.86L65.13-30.86Q65.38-31.64 65.57-32.42 65.77-33.2 66.11-33.98L66.11-33.98Q66.35-34.67 66.69-35.3 67.04-35.94 67.28-36.62L67.28-36.62Q67.48-37.11 67.62-37.26 67.77-37.4 67.91-37.55ZM92.96-6.84L92.96-6.84Q93.35-6.2 93.55-5.62 93.74-5.03 93.74-4.79L93.74-4.79Q93.74-4.44 93.62-4.22 93.5-4 93.3-3.76L93.3-3.76Q91.35-2.93 89.42-2.22 87.49-1.51 85.49-0.83L85.49-0.83Q85-0.68 84.54-0.51 84.07-0.34 83.54-0.24L83.54-0.24Q83.44-0.15 83.2-0.05 82.95 0.05 82.63 0.15 82.32 0.24 82.02 0.32 81.73 0.39 81.63 0.39L81.63 0.39Q81.54 0.15 81.44 0.1 81.34 0.05 81.24 0L81.24 0Q81 0 80.93 0.17 80.85 0.34 80.61 0.44L80.61 0.44Q80.36 0.44 80.17 0.46 79.97 0.49 79.83 0.39L79.83 0.39Q79.44 0.49 79.12 0.73 78.8 0.98 78.41 1.07L78.41 1.07Q77.68 0.88 77.51 0.9 77.34 0.93 77.14 0.98L77.14 0.98Q76.8 0.68 76.82 0.15 76.85-0.39 76.56-0.73L76.56-0.73Q76.56-1.37 76.46-1.44 76.36-1.51 76.36-1.61L76.36-1.61Q76.36-1.95 76.41-2.25 76.46-2.54 76.36-2.88L76.36-2.88Q76.56-3.71 76.51-4.49 76.46-5.27 76.56-6.05L76.56-6.05Q76.56-6.3 76.58-6.52 76.6-6.74 76.6-6.98L76.6-6.98Q76.6-7.71 76.7-7.89 76.8-8.06 76.8-8.3L76.8-8.3Q76.8-8.64 76.77-8.96 76.75-9.28 76.75-9.67L76.75-9.67Q76.75-10.35 76.77-11.01 76.8-11.67 76.8-12.4L76.8-12.4Q76.8-14.26 76.56-16.11 76.31-17.97 76.31-19.82L76.31-19.82Q76.31-22.07 76.07-24.27 75.82-26.46 75.82-28.71L75.82-28.71Q75.82-29.1 75.82-29.81 75.82-30.52 75.82-31.27 75.82-32.03 75.85-32.71 75.87-33.4 75.92-33.69L75.92-33.69Q75.92-33.74 76.21-33.84 76.51-33.94 76.6-33.94L76.6-33.94Q76.85-33.94 76.99-33.81 77.14-33.69 77.34-33.59L77.34-33.59Q78.22-33.69 78.39-33.76 78.56-33.84 78.65-33.84L78.65-33.84Q78.95-33.84 79.12-33.69 79.29-33.54 79.39-33.54L79.39-33.54Q80.22-33.74 80.29-33.59 80.36-33.45 80.61-33.45L80.61-33.45Q81.24-33.64 81.39-33.59 81.54-33.54 81.68-33.54L81.68-33.54Q81.93-33.54 82.22-33.72 82.51-33.89 82.76-33.98L82.76-33.98Q83.59-34.23 84.12-34.47L84.12-34.47Q84.86-34.91 85.22-35.06 85.59-35.21 85.98-35.4L85.98-35.4Q86.81-35.74 87.57-36.11 88.32-36.47 89.15-36.87L89.15-36.87Q89.3-36.87 89.47-36.89 89.64-36.91 89.74-37.01L89.74-37.01Q89.89-36.96 90.06-36.96 90.23-36.96 90.37-36.96L90.37-36.96Q90.86-36.77 91.01-36.72L91.01-36.72Q91.2-36.43 91.37-36.16 91.55-35.89 91.79-35.64L91.79-35.64Q92.03-35.21 92.18-35.21L92.18-35.21Q92.18-35.06 92.03-34.89 91.89-34.72 91.89-34.57L91.89-34.57Q92.28-33.89 92.52-33.3 92.77-32.71 92.77-32.47L92.77-32.47Q92.77-32.13 92.67-31.91 92.57-31.69 92.42-31.45L92.42-31.45Q90.57-30.57 88.69-29.71 86.81-28.86 84.86-28.03L84.86-28.03Q84.37-27.83 83.93-27.61 83.49-27.39 82.95-27.29L82.95-27.29Q82.85-27.2 82.51-27.12 82.17-27.05 81.97-27.05L81.97-27.05Q82.07-26.22 82.1-25.42 82.12-24.61 82.17-23.78L82.17-23.78Q82.22-23.1 82.34-22.34 82.46-21.58 82.56-20.85L82.56-20.85Q84.17-21.53 85.76-22.22 87.35-22.9 88.96-23.58L88.96-23.58Q89.25-23.54 89.57-23.49 89.89-23.44 90.18-23.34L90.18-23.34Q90.28-23.24 90.37-23.1 90.47-22.95 90.62-22.85L90.62-22.85Q90.57-22.61 90.93-22.12 91.3-21.63 91.3-21.39L91.3-21.39Q91.3-21 91.4-20.92 91.5-20.85 91.59-20.51L91.59-20.51Q91.64-20.02 91.59-19.97L91.59-19.97Q91.84-19.73 91.98-19.48 92.13-19.24 92.13-18.9L92.13-18.9Q91.45-18.07 90.76-17.8 90.08-17.53 89.4-17.24L89.4-17.24Q89.15-17.14 88.88-16.97 88.62-16.8 88.37-16.7L88.37-16.7Q87.98-16.55 87.61-16.43 87.25-16.31 86.86-16.11L86.86-16.11Q86.22-15.77 85.56-15.36 84.9-14.94 84.22-14.79L84.22-14.79Q83.68-14.65 83.51-14.48 83.34-14.31 82.95-14.01L82.95-14.01 82.95-12.7 82.95-10.25Q82.95-9.77 82.95-9.25 82.95-8.74 82.9-8.2L82.9-8.2Q82.81-7.71 82.81-7.37L82.81-7.37 82.81-6.59Q83.05-6.69 83.29-6.76 83.54-6.84 83.78-6.93L83.78-6.93Q83.98-6.98 84.15-6.98 84.32-6.98 84.51-7.08L84.51-7.08Q84.76-7.13 84.9-7.18 85.05-7.23 85.25-7.32L85.25-7.32Q85.98-7.71 86.37-7.84 86.76-7.96 87.15-8.11L87.15-8.11Q87.98-8.4 88.76-8.72 89.54-9.03 90.32-9.33L90.32-9.33Q90.81-9.23 91.01-9.47L91.01-9.47Q91.25-9.42 91.42-9.38 91.59-9.33 91.84-9.33L91.84-9.33Q92.42-8.79 92.57-8.5 92.72-8.2 92.96-7.96L92.96-7.96Q93.21-7.52 93.3-7.52L93.3-7.52Q93.3-7.42 93.16-7.2 93.01-6.98 92.96-6.84ZM119.28-36.67L119.28-36.67Q119.81-36.67 120.06-36.52L120.06-36.52Q120.3-36.04 120.38-35.67 120.45-35.3 120.45-34.81L120.45-34.81Q120.5-34.08 120.47-33.76 120.45-33.45 120.4-33.11L120.4-33.11Q120.35-32.32 120.35-31.62 120.35-30.91 120.35-30.13L120.35-30.13Q120.35-28.42 120.4-26.66 120.45-24.9 120.45-23.19L120.45-23.19Q120.45-22.51 120.42-21.85 120.4-21.19 120.4-20.51L120.4-20.51Q120.4-20.36 120.42-20.19 120.45-20.02 120.45-19.87L120.45-19.87Q120.45-19.43 120.42-19.02 120.4-18.6 120.4-18.21L120.4-18.21Q120.4-18.02 120.4-17.87 120.4-17.72 120.45-17.48L120.45-17.48Q120.35-17.09 120.35-16.94L120.35-16.94Q120.35-16.16 120.4-15.36 120.45-14.55 120.45-13.77L120.45-13.77Q120.45-13.04 120.47-12.35 120.5-11.67 120.5-10.94L120.5-10.94Q120.5-10.55 120.47-10.11 120.45-9.67 120.45-9.23L120.45-9.23Q120.45-8.2 120.5-7.15 120.55-6.1 120.6-5.08L120.6-5.08Q120.6-4.39 120.6-3.74 120.6-3.08 120.69-2.39L120.69-2.39Q120.69-1.61 120.62-1.25 120.55-0.88 120.45-0.54L120.45-0.54Q120.06-0.44 119.94-0.46 119.81-0.49 119.67-0.49L119.67-0.49Q118.98-0.29 118.79-0.12 118.59 0.05 118.35 0.24L118.35 0.24Q118.15 0.24 117.89 0.27 117.62 0.29 117.47 0.44L117.47 0.44Q117.23 0.34 117.08 0.39 116.93 0.44 116.79 0.44L116.79 0.44Q116.1 0.49 115.86 0.61 115.62 0.73 115.18 0.73L115.18 0.73Q114.78 0.1 114.59-0.27 114.39-0.63 113.95-0.59L113.95-0.59Q113.32-1.56 113.05-2.64 112.78-3.71 112.15-4.59L112.15-4.59Q112.1-4.98 112-5.08 111.9-5.18 111.81-5.47L111.81-5.47Q111.61-5.86 111.46-6.3 111.32-6.74 111.07-7.13L111.07-7.13Q110.68-7.96 110.29-8.76 109.9-9.57 109.56-10.45L109.56-10.45Q109.41-10.84 109.32-11.25 109.22-11.67 109.07-12.06L109.07-12.06Q108.97-12.26 108.85-12.45 108.73-12.65 108.63-12.79L108.63-12.79Q108.34-13.33 108.07-13.87 107.8-14.4 107.46-14.94L107.46-14.94Q107.36-15.19 107.19-15.41 107.02-15.63 106.83-15.87L106.83-15.87Q106.68-16.21 106.56-16.55 106.44-16.89 106.29-17.24L106.29-17.24Q106.19-17.53 106-17.85 105.8-18.16 105.7-18.46L105.7-18.46Q105.61-18.7 105.56-18.95 105.51-19.19 105.26-19.38L105.26-19.38Q104.92-18.8 104.92-18.6L104.92-18.6Q104.87-18.02 104.85-17.65 104.82-17.29 104.82-16.99L104.82-16.99Q104.82-16.65 104.9-16.33 104.97-16.02 104.97-15.72L104.97-15.72Q105.07-14.55 105.12-13.35 105.17-12.16 105.17-10.99L105.17-10.99Q105.12-10.06 105.14-9.57 105.17-9.08 105.21-8.59L105.21-8.59Q105.26-8.11 105.24-7.59 105.21-7.08 105.26-6.59L105.26-6.59Q105.26-5.47 105.29-4.42 105.31-3.37 105.31-2.25L105.31-2.25 105.31-1.07Q105.31-0.54 105.17-0.1L105.17-0.1Q104.43-0.1 104.21-0.15 103.99-0.2 103.75-0.29L103.75-0.29Q103.46-0.24 103.29-0.07 103.12 0.1 102.87 0.24L102.87 0.24Q102.33 0.2 102.28 0.27 102.24 0.34 102.09 0.44L102.09 0.44Q101.94 0.49 101.82 0.44 101.7 0.39 101.55 0.39L101.55 0.39Q101.16 0.29 100.92 0.29L100.92 0.29Q100.62 0.39 100.36 0.49 100.09 0.59 99.79 0.63L99.79 0.63Q99.5 0.1 99.45-0.63 99.4-1.37 99.06-1.9L99.06-1.9Q99.16-2.1 99.18-2.15 99.21-2.2 99.21-2.44L99.21-2.44Q99.21-3.56 99.16-4.69 99.11-5.81 99.11-6.93L99.11-6.93Q99.11-7.86 98.99-8.74 98.87-9.62 98.87-10.55L98.87-10.55Q98.87-10.84 98.92-11.13 98.96-11.43 98.96-11.77L98.96-11.77Q98.96-11.91 98.94-12.06 98.92-12.21 98.92-12.3L98.92-12.3Q98.82-13.18 98.79-14.11 98.77-15.04 98.77-15.97L98.77-15.97Q98.72-16.5 98.7-17.09 98.67-17.68 98.67-18.31L98.67-18.31Q98.67-18.55 98.72-18.85 98.77-19.14 98.77-19.43L98.77-19.43 98.77-21.48Q98.67-22.07 98.7-22.27 98.72-22.46 98.72-22.66L98.72-22.66Q98.72-23.1 98.65-23.51 98.57-23.93 98.57-24.41L98.57-24.41Q98.57-24.76 98.65-25.07 98.72-25.39 98.72-25.73L98.72-25.73Q98.72-26.46 98.65-27.15 98.57-27.83 98.57-28.56L98.57-28.56 98.57-32.71Q98.57-33.06 98.53-33.4 98.48-33.74 98.48-34.13L98.48-34.13Q98.77-34.81 99.01-34.84 99.26-34.86 99.45-35.01L99.45-35.01Q99.99-34.91 100.38-35.11L100.38-35.11Q101.02-35.06 101.16-35.25L101.16-35.25Q101.26-35.16 101.43-35.18 101.6-35.21 101.75-35.16L101.75-35.16Q101.89-35.25 101.99-35.35 102.09-35.45 102.28-35.55L102.28-35.55Q102.82-35.84 102.92-35.91 103.02-35.99 103.16-36.08L103.16-36.08Q103.41-36.08 103.48-35.94 103.55-35.79 103.8-35.79L103.8-35.79Q103.9-35.6 104.04-35.4 104.19-35.21 104.38-35.11L104.38-35.11Q104.78-34.28 105.31-33.69L105.31-33.69Q105.75-32.42 106.31-31.25 106.87-30.08 107.51-28.91L107.51-28.91Q107.51-28.76 107.56-28.54 107.61-28.32 107.66-28.22L107.66-28.22Q107.9-27.69 108.36-26.83 108.83-25.98 109.17-25.44L109.17-25.44Q109.27-25.24 109.41-25.1 109.56-24.95 109.66-24.76L109.66-24.76Q109.8-24.51 109.9-24.22 110-23.93 110.15-23.68L110.15-23.68Q110.39-23.1 110.71-22.53 111.03-21.97 111.37-21.39L111.37-21.39Q111.46-21.09 111.59-20.8 111.71-20.51 111.86-20.21L111.86-20.21Q112.25-19.34 112.56-18.87 112.88-18.41 113.03-17.87L113.03-17.87Q113.37-17.48 113.56-17.02 113.76-16.55 114.15-16.26L114.15-16.26Q114.2-16.5 114.25-17.7 114.3-18.9 114.3-20.31 114.3-21.73 114.3-23 114.3-24.27 114.3-24.71L114.3-24.71Q114.3-26.03 114.25-27.32 114.2-28.61 114.2-29.88L114.2-29.88Q114.2-30.91 114.22-31.96 114.25-33.01 114.3-34.03L114.3-34.03Q114.35-34.57 114.32-35.03 114.3-35.5 114.35-35.99L114.35-35.99Q114.39-36.23 114.54-36.47 114.69-36.72 114.78-36.96L114.78-36.96Q115.42-37.06 115.76-36.72L115.76-36.72Q116.05-36.87 116.47-36.87 116.88-36.87 117.18-36.91L117.18-36.91Q117.57-36.96 117.62-36.99 117.67-37.01 117.76-37.01L117.76-37.01Q117.96-36.91 118.13-36.87 118.3-36.82 118.54-36.72L118.54-36.72Q118.98-36.87 119.28-36.67ZM146.76-34.91L146.76-34.91Q146.67-34.72 146.69-34.52 146.72-34.33 146.72-34.08L146.72-34.08Q146.62-33.5 146.72-33.5 146.81-33.5 146.81-33.4L146.81-33.4 146.47-32.91Q146.47-32.62 146.35-32.37 146.23-32.13 146.28-31.79L146.28-31.79Q146.13-31.54 146.01-31.3 145.89-31.05 145.64-30.81L145.64-30.81 145.01-30.81Q144.47-30.81 143.86-30.74 143.25-30.66 142.66-30.66L142.66-30.66Q142.57-30.66 142.42-30.69 142.27-30.71 142.13-30.71L142.13-30.71Q142.03-30.71 141.88-30.69 141.74-30.66 141.54-30.66L141.54-30.66Q140.81-30.66 140.1-30.74 139.39-30.81 138.61-30.81L138.61-30.81Q138.42-30.81 138.22-30.81 138.02-30.81 137.78-30.76L137.78-30.76Q137.73-29.93 137.71-29.08 137.68-28.22 137.68-27.34L137.68-27.34Q137.68-27.1 137.63-26.83 137.59-26.56 137.59-26.32L137.59-26.32Q137.54-25.68 137.51-25.1 137.49-24.51 137.49-23.88L137.49-23.88Q137.49-22.51 137.51-21.14 137.54-19.78 137.59-18.36L137.59-18.36Q137.63-17.63 137.68-16.94 137.73-16.26 137.73-15.53L137.73-15.53Q137.73-13.87 137.68-12.23 137.63-10.6 137.63-8.94L137.63-8.94Q137.63-8.4 137.59-7.93 137.54-7.47 137.54-6.93L137.54-6.93Q137.54-5.81 137.59-4.69 137.63-3.56 137.63-2.44L137.63-2.44Q137.63-1.9 137.61-1.37 137.59-0.83 137.59-0.29L137.59-0.29Q137.34 0.1 137.24 0.39 137.15 0.68 136.66 0.68L136.66 0.68Q136.32 0.59 136.34 0.46 136.36 0.34 136.27 0.24L136.27 0.24Q135.83 0.2 135.61 0.32 135.39 0.44 135.09 0.54L135.09 0.54Q134.95 0.49 134.78 0.49 134.61 0.49 134.46 0.49L134.46 0.49Q134.36 0.49 134.26 0.56 134.17 0.63 133.83 0.63L133.83 0.63Q133.53 0.68 133.48 0.54 133.43 0.39 133.19 0.39L133.19 0.39Q132.95 0.54 132.63 0.61 132.31 0.68 132.02 0.68L132.02 0.68Q131.73 0.49 131.75 0.32 131.77 0.15 131.68-0.05L131.68-0.05Q131.63-0.15 131.51-0.32 131.38-0.49 131.29-0.59L131.29-0.59Q131.38-1.27 131.43-1.81 131.48-2.34 131.48-2.98L131.48-2.98Q131.48-4.25 131.38-5.47 131.29-6.69 131.29-7.96L131.29-7.96Q131.29-8.35 131.38-8.79 131.48-9.23 131.48-9.72L131.48-9.72Q131.38-10.11 131.43-10.18 131.48-10.25 131.48-10.35L131.48-10.35Q131.48-10.64 131.46-10.94 131.43-11.23 131.43-11.52L131.43-11.52Q131.43-12.11 131.46-12.7 131.48-13.28 131.48-13.87L131.48-13.87Q131.48-14.11 131.46-14.38 131.43-14.65 131.43-14.89L131.43-14.89Q131.38-15.33 131.41-15.82 131.43-16.31 131.43-16.8L131.43-16.8Q131.43-19.14 131.36-21.44 131.29-23.73 131.29-26.07L131.29-26.07Q131.29-27.2 131.41-28.37 131.53-29.54 131.53-30.71L131.53-30.71Q131.53-30.86 131.43-31.1 131.34-31.35 131.24-31.45L131.24-31.45Q130.99-31.45 130.77-31.47 130.55-31.49 130.31-31.49L130.31-31.49Q129.77-31.49 129.28-31.35L129.28-31.35Q128.36-31.3 127.5-31.23 126.65-31.15 125.77-31.1L125.77-31.1Q125.18-31.15 125.06-31.13 124.94-31.1 124.79-31.1L124.79-31.1Q124.4-31.1 124.21-31.3L124.21-31.3 124.21-31.93Q123.91-32.52 123.96-32.57 124.01-32.62 124.01-32.71L124.01-32.71Q124.01-32.86 123.74-33.03 123.47-33.2 123.47-33.59L123.47-33.59Q123.43-33.98 123.28-34.18 123.13-34.38 123.13-34.57L123.13-34.57Q123.13-34.91 123.28-35.35L123.28-35.35Q123.72-35.6 124.13-35.69 124.55-35.79 125.09-35.94L125.09-35.94Q125.38-36.04 125.62-36.13 125.87-36.23 126.16-36.28L126.16-36.28Q126.5-36.33 126.84-36.33 127.18-36.33 127.53-36.38L127.53-36.38Q128.26-36.52 129.06-36.62 129.87-36.72 130.6-36.72L130.6-36.72Q131.29-36.72 131.97-36.55 132.65-36.38 133.19-36.38L133.19-36.38Q133.97-36.38 134.68-36.28 135.39-36.18 136.17-36.18L136.17-36.18Q136.27-36.18 136.49-36.11 136.71-36.04 137-36.04L137-36.04 141.74-36.04Q142.13-35.94 142.3-35.99 142.47-36.04 142.61-36.04L142.61-36.04Q143.01-36.04 143.35-35.99 143.69-35.94 144.08-35.94L144.08-35.94Q144.42-35.94 144.62-35.99L144.62-35.99Q145.01-35.94 145.35-35.77 145.69-35.6 146.13-35.6L146.13-35.6Q146.33-35.45 146.42-35.23 146.52-35.01 146.76-34.91ZM172.79-19.38L172.79-19.38Q172.69-19.19 172.59-19.02 172.49-18.85 172.45-18.65L172.45-18.65Q172.64-18.46 172.81-18.24 172.98-18.02 172.98-17.77L172.98-17.77Q172.98-17.58 172.91-17.41 172.84-17.24 172.89-17.09L172.89-17.09Q172.69-16.75 172.47-16.46 172.25-16.16 172.15-15.82L172.15-15.82Q171.96-15.63 171.84-15.43 171.71-15.23 171.62-15.04L171.62-15.04Q171.37-14.94 171.3-14.72 171.23-14.5 171.03-14.36L171.03-14.36Q170.98-14.16 170.54-13.43 170.1-12.7 169.57-11.87 169.03-11.04 168.54-10.25 168.05-9.47 167.86-9.23L167.86-9.23Q167.76-8.98 167.64-8.84 167.51-8.69 167.37-8.5L167.37-8.5Q167.27-8.35 167.22-8.18 167.17-8.01 167.07-7.91L167.07-7.91Q166.98-7.71 166.86-7.57 166.73-7.42 166.64-7.18L166.64-7.18Q166.15-6.54 165.66-5.66 165.17-4.79 164.73-4.1L164.73-4.1Q164.49-3.71 164.27-3.32 164.05-2.93 163.8-2.54L163.8-2.54Q163.56-2.15 163.32-1.81 163.07-1.46 162.83-1.07L162.83-1.07Q162.44-0.78 162.14-0.37 161.85 0.05 161.46 0.34L161.46 0.34Q160.82 0.34 160.68-0.24L160.68-0.24Q160.04-0.39 160.04-0.24 160.04-0.1 160.04 0L160.04 0Q159.85 0.1 159.78 0.29 159.7 0.49 159.51 0.59L159.51 0.59Q159.12 0.49 158.85 0.27 158.58 0.05 158.09 0.1L158.09 0.1Q157.9-0.2 157.65-0.42 157.41-0.63 157.21-0.88L157.21-0.88Q157.11-1.17 156.94-1.37 156.77-1.56 156.63-1.76L156.63-1.76Q156.48-2 156.33-2.2 156.19-2.39 156.04-2.59L156.04-2.59Q155.7-3.03 155.38-3.44 155.06-3.86 154.82-4.3L154.82-4.3Q154.43-4.88 154.06-5.49 153.7-6.1 153.31-6.69L153.31-6.69Q153.11-6.98 152.91-7.28 152.72-7.57 152.57-7.86L152.57-7.86Q152.48-8.11 152.3-8.45 152.13-8.79 151.89-8.89L151.89-8.89Q151.79-9.28 151.55-9.47 151.3-9.67 151.06-9.96L151.06-9.96Q150.72-10.35 150.42-10.82 150.13-11.28 149.84-11.77L149.84-11.77Q148.86-13.13 148.01-14.45 147.15-15.77 146.32-17.19L146.32-17.19Q146.57-17.97 146.57-18.36 146.57-18.75 146.81-18.99L146.81-18.99Q146.81-19.19 146.91-19.58L146.91-19.58Q147.54-20.65 148.13-21.53L148.13-21.53Q148.67-22.36 148.89-22.9 149.11-23.44 149.35-24.02L149.35-24.02Q149.59-24.17 149.74-24.39 149.89-24.61 150.13-24.8L150.13-24.8Q150.23-25.34 150.57-25.71 150.91-26.07 151.01-26.61L151.01-26.61Q151.45-26.95 151.5-27.39L151.5-27.39Q152.13-27.83 152.28-28.56L152.28-28.56Q152.67-28.96 152.94-29.44 153.21-29.93 153.45-30.47L153.45-30.47Q154.04-30.96 154.38-31.74L154.38-31.74Q154.67-31.93 154.82-32.28 154.97-32.62 155.21-32.86L155.21-32.86Q155.6-33.5 155.82-33.91 156.04-34.33 156.28-34.77L156.28-34.77Q156.63-34.77 156.72-35.01 156.82-35.25 157.11-35.21L157.11-35.21Q157.11-35.64 157.36-35.99L157.36-35.99Q157.46-36.04 157.65-36.11 157.85-36.18 157.85-36.28L157.85-36.28Q157.75-36.87 157.9-36.96 158.04-37.06 158.14-37.16L158.14-37.16Q158.68-37.06 158.87-37.01 159.07-36.96 159.51-36.67L159.51-36.67Q159.99-36.67 160.19-36.47 160.39-36.28 160.63-36.18L160.63-36.18Q160.82-35.99 160.95-35.79 161.07-35.6 161.31-35.5L161.31-35.5Q161.7-34.96 162.14-34.33 162.58-33.69 162.97-33.15L162.97-33.15Q163.51-32.42 164.07-31.76 164.63-31.1 165.12-30.32L165.12-30.32Q165.27-30.08 165.66-29.47 166.05-28.86 166.54-28.17 167.03-27.49 167.42-26.93 167.81-26.37 167.95-26.27L167.95-26.27Q168.1-26.03 168.59-25.34 169.08-24.66 169.64-23.9 170.2-23.14 170.74-22.46 171.27-21.78 171.47-21.58L171.47-21.58Q172.01-20.85 172.28-20.39 172.54-19.92 172.79-19.38ZM161.61-10.21L161.61-10.21Q162.14-10.94 162.44-11.52 162.73-12.11 163.02-12.7L163.02-12.7Q163.51-13.28 163.61-13.53 163.71-13.77 163.85-14.01L163.85-14.01Q164.24-14.6 164.66-15.19 165.07-15.77 165.32-16.46L165.32-16.46Q165.61-16.65 165.76-16.94 165.9-17.24 166.2-17.48L166.2-17.48Q165.9-18.51 165.51-19.07 165.12-19.63 164.73-20.17L164.73-20.17Q164.58-20.41 164.44-20.65 164.29-20.9 164.15-21.14L164.15-21.14Q163.95-21.29 163.83-21.44 163.71-21.58 163.56-21.73L163.56-21.73Q163.46-21.97 163.27-22.36L163.27-22.36Q163.07-22.61 162.88-22.8 162.68-23 162.53-23.29L162.53-23.29Q162.34-23.49 162.05-23.83 161.75-24.17 161.44-24.58 161.12-25 160.87-25.37 160.63-25.73 160.48-25.98L160.48-25.98Q160.39-26.22 160.31-26.39 160.24-26.56 160.14-26.76L160.14-26.76Q159.9-27.1 159.65-27.37 159.41-27.64 159.16-27.98L159.16-27.98Q159.02-27.88 158.9-27.86 158.77-27.83 158.68-27.73L158.68-27.73Q158.33-27.1 157.92-26.56 157.5-26.03 157.11-25.39L157.11-25.39Q156.77-24.8 156.43-24.19 156.09-23.58 155.75-23L155.75-23Q155.5-22.66 155.28-22.34 155.06-22.02 154.82-21.63L154.82-21.63Q154.57-21.29 154.4-20.92 154.23-20.56 153.99-20.21L153.99-20.21Q153.6-19.73 153.35-19.34 153.11-18.95 152.87-18.41L152.87-18.41Q153.01-18.12 153.33-17.6 153.65-17.09 153.99-16.58 154.33-16.06 154.6-15.63 154.87-15.19 154.92-15.04L154.92-15.04Q155.31-14.7 155.55-14.28 155.8-13.87 156.19-13.48L156.19-13.48Q156.38-13.09 156.63-12.79 156.87-12.5 157.11-12.16L157.11-12.16Q157.36-11.82 157.75-11.16 158.14-10.5 158.53-9.81 158.92-9.13 159.31-8.54 159.7-7.96 159.95-7.81L159.95-7.81Q160.43-8.35 160.75-9.01 161.07-9.67 161.61-10.21ZM197.35-23.54L197.35-23.54Q196.91-22.61 196.15-21.78 195.39-20.95 194.71-20.21L194.71-20.21Q194.17-19.68 193.78-19.04 193.39-18.41 192.9-17.87L192.9-17.87Q192.51-17.43 192.12-17.07 191.73-16.7 191.39-16.26L191.39-16.26Q191.14-16.06 190.92-15.87 190.71-15.67 190.51-15.38L190.51-15.38Q191.24-13.82 192.24-12.55 193.24-11.28 194.32-10.01L194.32-10.01Q194.86-9.38 195.39-8.81 195.93-8.25 196.32-7.62L196.32-7.62Q196.66-6.88 197.03-6.52 197.39-6.15 197.69-5.76L197.69-5.76Q197.98-5.27 198.2-4.91 198.42-4.54 198.81-4.2L198.81-4.2Q198.81-3.96 199.1-3.74 199.4-3.52 199.49-3.27L199.49-3.27Q199.49-3.03 199.52-2.88 199.54-2.73 199.54-2.64L199.54-2.64Q199.4-2.25 199.03-1.98 198.66-1.71 198.37-1.42L198.37-1.42Q197.88-1.42 197.54-1.12 197.2-0.83 196.61-0.83L196.61-0.83Q196.37-0.63 196.22-0.42 196.08-0.2 195.83 0L195.83 0Q195.44 0 195.12 0.22 194.81 0.44 194.42 0.54L194.42 0.54Q193.93 0.24 193.63-0.22 193.34-0.68 192.85-0.93L192.85-0.93Q192.8-1.17 192.68-1.34 192.56-1.51 192.46-1.71L192.46-1.71Q191.63-2.64 190.9-3.66 190.17-4.69 189.44-5.71L189.44-5.71Q189.05-6.15 188.63-6.57 188.21-6.98 187.82-7.47L187.82-7.47Q187.58-7.76 187.34-8.15 187.09-8.54 186.8-8.89L186.8-8.89Q186.46-9.18 186.21-9.57 185.97-9.96 185.63-10.21L185.63-10.21Q185.19-9.96 184.85-9.57 184.5-9.18 184.06-8.89L184.06-8.89Q183.67-8.54 183.31-8.2 182.94-7.86 182.55-7.57L182.55-7.57Q182.45-6.45 182.45-5.4 182.45-4.35 182.45-3.32L182.45-3.32Q182.45-2.49 182.43-1.73 182.4-0.98 182.21-0.2L182.21-0.2Q181.96-0.15 181.75-0.46 181.53-0.78 181.28-0.83L181.28-0.83Q181.09-0.78 180.96-0.63 180.84-0.49 180.6-0.59L180.6-0.59Q180.35-0.34 179.87-0.15L179.87-0.15Q179.62-0.15 179.33-0.07 179.04 0 178.79 0L178.79 0Q178.4 0 178.25-0.1L178.25-0.1Q177.77 0.24 177.45 0.27 177.13 0.29 176.94 0.29L176.94 0.29Q176.84-0.05 176.74-0.37 176.64-0.68 176.59-1.07L176.59-1.07Q176.45-1.27 176.37-1.51 176.3-1.76 176.2-2L176.2-2Q176.25-2.15 176.25-2.34 176.25-2.54 176.25-2.73L176.25-2.73Q176.25-3.56 176.2-4.35 176.15-5.13 176.25-5.96L176.25-5.96Q176.15-6.2 176.11-6.45 176.06-6.69 176.06-6.93L176.06-6.93Q176.06-7.08 176.08-7.28 176.11-7.47 176.2-7.57L176.2-7.57Q176.06-8.2 176.03-8.91 176.01-9.62 176.01-10.25L176.01-10.25Q176.01-10.6 176.08-10.96 176.15-11.33 176.15-11.72L176.15-11.72Q176.15-12.55 176.06-13.33 175.96-14.11 175.96-14.89L175.96-14.89Q176.01-15.43 176.01-15.72L176.01-15.72Q176.01-16.02 176.06-16.31 176.11-16.6 176.01-16.89L176.01-16.89Q176.06-17.14 176.13-17.26 176.2-17.38 176.2-17.63L176.2-17.63Q176.2-18.26 176.23-18.87 176.25-19.48 176.25-20.17L176.25-20.17Q176.25-20.65 176.28-21.12 176.3-21.58 176.3-22.12L176.3-22.12Q176.3-22.56 176.37-22.95 176.45-23.34 176.5-23.73L176.5-23.73Q176.55-24.17 176.55-24.58 176.55-25 176.55-25.39L176.55-25.39Q176.55-26.42 176.55-27.47 176.55-28.52 176.45-29.54L176.45-29.54Q176.4-29.79 176.35-30.08 176.3-30.37 176.3-30.66L176.3-30.66Q176.2-31.59 176.15-32.57 176.11-33.54 175.96-34.52L175.96-34.52Q176.06-34.67 176.06-34.84 176.06-35.01 176.06-35.16L176.06-35.16Q176.06-35.4 176.06-35.62 176.06-35.84 176.01-36.08L176.01-36.08Q176.11-36.18 176.2-36.3 176.3-36.43 176.4-36.52L176.4-36.52Q176.69-36.52 177.01-36.5 177.33-36.47 177.57-36.28L177.57-36.28Q177.81-36.38 178.13-36.5 178.45-36.62 178.69-36.62L178.69-36.62Q179.08-36.62 179.28-36.43L179.28-36.43Q179.52-36.52 179.55-36.65 179.57-36.77 179.91-36.77L179.91-36.77Q180.55-36.82 180.82-36.82 181.09-36.82 181.33-36.87L181.33-36.87Q181.48-36.77 181.57-36.62 181.67-36.47 181.77-36.33L181.77-36.33Q182.84-35.94 183.5-35.23 184.16-34.52 184.99-34.03L184.99-34.03Q185.19-33.89 185.38-33.79 185.58-33.69 185.77-33.59L185.77-33.59Q186.21-33.3 186.65-32.96 187.09-32.62 187.58-32.37L187.58-32.37Q188.07-32.13 188.14-32.1 188.21-32.08 188.26-31.98L188.26-31.98Q189.34-31.59 190.19-30.93 191.05-30.27 192.02-29.74L192.02-29.74Q192.37-29.54 192.88-29.35 193.39-29.15 193.9-28.93 194.42-28.71 194.88-28.47 195.34-28.22 195.59-27.93L195.59-27.93Q196.13-27.39 196.54-27.17 196.96-26.95 197.35-26.66L197.35-26.66 197.39-25.34Q197.39-25 197.32-24.71 197.25-24.41 197.25-24.07L197.25-24.07Q197.25-23.83 197.35-23.54ZM190.66-24.8L190.66-24.8Q190.12-25.1 189.58-25.37 189.05-25.63 188.65-26.12L188.65-26.12Q188.31-26.22 187.43-26.59 186.55-26.95 185.65-27.37 184.75-27.78 183.99-28.1 183.23-28.42 183.14-28.42L183.14-28.42Q182.99-28.37 182.99-27.78 182.99-27.2 182.99-26.51 182.99-25.83 182.99-25.2 182.99-24.56 182.99-24.41L182.99-24.41Q182.99-23.49 182.94-22.61 182.89-21.73 182.8-20.8L182.8-20.8Q182.7-20.65 182.65-20.53 182.6-20.41 182.55-20.26L182.55-20.26Q182.45-19.58 182.45-18.46 182.45-17.33 182.45-16.65L182.45-16.65Q182.45-16.31 182.45-16.02 182.45-15.72 182.5-15.33L182.5-15.33Q182.75-15.33 182.84-15.45 182.94-15.58 183.19-15.67L183.19-15.67Q183.82-16.36 184.46-16.99 185.09-17.63 185.77-18.31L185.77-18.31Q186.07-18.6 186.36-18.95 186.65-19.29 186.99-19.53L186.99-19.53Q187.24-19.82 187.43-20.09 187.63-20.36 187.87-20.61L187.87-20.61Q188.56-21.34 189.29-22.05 190.02-22.75 190.51-23.63L190.51-23.63Q190.85-23.88 191.14-24.41L191.14-24.41Q190.8-24.46 190.66-24.8ZM222.39-34.57L222.39-34.57Q221.86-33.59 221.17-32.28 220.49-30.96 220.1-29.98L220.1-29.98Q219.95-29.64 219.83-29.32 219.71-29 219.56-28.66L219.56-28.66Q219.32-27.93 218.95-27.27 218.58-26.61 218.29-25.88L218.29-25.88Q217.85-24.9 217.39-23.9 216.92-22.9 216.48-21.83L216.48-21.83Q216-20.85 215.73-20.14 215.46-19.43 215.17-18.7 214.87-17.97 214.65-17.26 214.43-16.55 214.29-15.97L214.29-15.97Q213.85-15.19 213.55-14.79L213.55-14.79Q213.46-13.92 213.36-13.04 213.26-12.16 213.26-11.23L213.26-11.23Q213.26-10.79 213.33-10.38 213.41-9.96 213.46-9.52L213.46-9.52Q213.51-8.89 213.48-8.28 213.46-7.67 213.51-7.03L213.51-7.03Q213.55-5.81 213.63-4.61 213.7-3.42 213.75-2.15L213.75-2.15Q213.8-1.27 213.68-0.66 213.55-0.05 213.6 0.59L213.6 0.59Q213.46 0.68 213.29 0.73 213.11 0.78 212.97 0.88L212.97 0.88Q212.43 0.88 212.26 0.85 212.09 0.83 211.94 0.93L211.94 0.93Q211.5 0.63 211.45 0.66 211.41 0.68 211.36 0.68L211.36 0.68Q210.77 0.49 210.72 0.39 210.67 0.29 210.53 0.2L210.53 0.2Q209.99 0.2 209.65 0.34L209.65 0.34Q209.5 0.24 209.4 0.15 209.31 0.05 209.16-0.05L209.16-0.05Q208.72-0.1 208.43-0.17 208.13-0.24 207.94-0.34L207.94-0.34Q207.79-0.73 207.62-1.03 207.45-1.32 207.45-1.81L207.45-1.81Q207.45-2.2 207.55-2.54 207.65-2.88 207.69-3.27L207.69-3.27Q207.69-3.52 207.67-3.71 207.65-3.91 207.65-4.15L207.65-4.15Q207.65-4.39 207.74-4.79L207.74-4.79Q207.6-5.91 207.62-7.15 207.65-8.4 207.65-9.52L207.65-9.52Q207.65-10.64 207.45-11.62L207.45-11.62Q207.5-12.26 207.45-12.52 207.4-12.79 207.4-13.09L207.4-13.09Q207.4-13.33 207.45-13.6 207.5-13.87 207.5-14.11L207.5-14.11Q207.5-14.16 207.43-14.62 207.35-15.09 207.26-15.6 207.16-16.11 207.06-16.58 206.96-17.04 206.96-17.14L206.96-17.14Q206.47-18.02 206.23-18.8 205.99-19.58 205.69-20.12L205.69-20.12Q205.5-20.51 205.3-20.9 205.11-21.29 204.96-21.73L204.96-21.73Q204.86-21.97 204.79-22.27 204.72-22.56 204.62-22.8L204.62-22.8Q204.42-23.19 204.25-23.66 204.08-24.12 203.84-24.41L203.84-24.41Q203.64-24.85 203.47-25.22 203.3-25.59 203.3-25.93L203.3-25.93Q203.15-26.51 202.84-26.98 202.52-27.44 202.27-27.93L202.27-27.93Q202.13-28.22 202.06-28.47 201.98-28.71 201.88-28.96L201.88-28.96Q201.79-29.15 201.62-29.44 201.44-29.74 201.25-29.88L201.25-29.88Q201.15-30.32 200.91-30.66 200.66-31.01 200.57-31.45L200.57-31.45Q200.32-31.79 200.03-32.13L200.03-32.13Q199.83-32.86 199.49-33.47 199.15-34.08 198.86-34.77L198.86-34.77Q199.05-35.79 199.98-36.04L199.98-36.04Q200.47-36.62 200.57-36.67 200.66-36.72 201.01-36.72L201.01-36.72Q201.3-36.96 201.59-37.13 201.88-37.3 202.27-37.21L202.27-37.21Q202.32-37.4 202.54-37.55 202.76-37.7 202.96-37.7L202.96-37.7Q203.25-37.7 203.47-37.4 203.69-37.11 203.94-36.96L203.94-36.96Q204.33-36.28 204.74-35.64 205.16-35.01 205.45-34.33L205.45-34.33Q205.79-33.64 206.06-32.96 206.33-32.28 206.86-31.64L206.86-31.64Q207.11-30.66 207.62-29.81 208.13-28.96 208.48-27.98L208.48-27.98Q208.72-27.39 209.04-26.83 209.36-26.27 209.6-25.63L209.6-25.63Q209.75-25.34 209.84-25.05 209.94-24.76 210.04-24.46L210.04-24.46Q210.14-24.22 210.23-23.83 210.33-23.44 210.48-23.19L210.48-23.19Q210.82-23.54 211.06-24.07L211.06-24.07Q211.41-24.76 211.77-25.37 212.14-25.98 212.43-26.66L212.43-26.66Q212.82-27.29 212.99-27.98 213.16-28.66 213.41-29.35L213.41-29.35Q213.51-29.59 213.63-29.83 213.75-30.08 213.85-30.37L213.85-30.37Q213.99-30.66 214.09-30.96 214.19-31.25 214.29-31.54L214.29-31.54Q214.63-32.47 215.04-33.37 215.46-34.28 215.9-35.21L215.9-35.21Q215.95-35.35 216.12-35.64 216.29-35.94 216.51-36.25 216.73-36.57 216.92-36.82 217.12-37.06 217.27-37.16L217.27-37.16Q217.36-37.26 217.58-37.28 217.8-37.3 217.95-37.35L217.95-37.35Q218.39-37.35 218.58-37.11L218.58-37.11Q219.17-36.87 219.46-36.77 219.76-36.67 219.9-36.33L219.9-36.33Q220.63-35.84 221-35.77 221.37-35.69 221.56-35.35L221.56-35.35Q222.1-35.01 222.2-34.86 222.29-34.72 222.39-34.57ZM250.08-18.7L250.27-18.7Q250.37-18.36 250.66-17.97 250.95-17.58 250.95-17.38L250.95-17.38Q250.56-16.46 250.37-15.94 250.17-15.43 249.73-15.04L249.73-15.04Q249.73-14.89 249.44-14.4 249.15-13.92 248.78-13.35 248.42-12.79 248.05-12.28 247.68-11.77 247.58-11.57L247.58-11.57Q247.34-11.18 247.19-10.82 247.05-10.45 246.85-10.11L246.85-10.11Q246.41-9.33 245.95-8.64 245.49-7.96 245.09-7.13L245.09-7.13Q244.85-6.88 244.66-6.59 244.46-6.3 244.22-6.05L244.22-6.05Q243.63-4.98 242.87-4.05 242.12-3.13 241.48-2L241.48-2Q242.02-1.46 242.02-0.63L242.02-0.63Q242.02-0.2 241.77-0.17 241.53-0.15 241.33-0.05L241.33-0.05Q240.85 0.29 240.46 0.34 240.07 0.39 239.82 0.39L239.82 0.39Q239.28 0.39 238.65 0.37 238.01 0.34 237.58 0.44L237.58 0.44Q237.43 0.49 237.23 0.61 237.04 0.73 236.94 0.73L236.94 0.73Q236.55 0.73 236.38 0.61 236.21 0.49 235.92 0.39L235.92 0.39Q235.52-0.05 235.21-0.54 234.89-1.03 234.55-1.51L234.55-1.51Q234.25-1.86 233.91-2.12 233.57-2.39 233.28-2.78L233.28-2.78Q232.5-3.91 231.69-4.93 230.89-5.96 230.06-6.98L230.06-6.98Q229.67-7.52 229.2-8.01 228.74-8.5 228.35-8.98L228.35-8.98Q227.96-9.52 227.61-10.11 227.27-10.69 226.88-11.23L226.88-11.23Q226.59-11.72 226.05-12.43 225.51-13.13 224.93-13.87 224.34-14.6 223.73-15.26 223.12-15.92 222.68-16.26L222.68-16.26Q222.68-16.6 222.49-16.75 222.29-16.89 222.05-17.09L222.05-17.09Q221.95-17.33 221.8-17.55 221.66-17.77 221.66-18.07L221.66-18.07Q221.66-18.41 221.8-18.7L221.8-18.7Q221.9-18.9 221.93-19.07 221.95-19.24 222.05-19.43L222.05-19.43Q222.29-20.07 222.76-20.56 223.22-21.04 223.46-21.68L223.46-21.68Q223.51-21.88 223.51-22.05 223.51-22.22 223.61-22.41L223.61-22.41Q223.76-22.75 224.05-23.02 224.34-23.29 224.59-23.63L224.59-23.63Q224.83-24.07 225.08-24.51 225.32-24.95 225.56-25.39L225.56-25.39Q226.25-26.51 227.08-27.56 227.91-28.61 228.64-29.64L228.64-29.64Q229.32-30.62 229.91-31.57 230.5-32.52 231.18-33.5L231.18-33.5Q231.52-33.98 231.96-34.59 232.4-35.21 232.86-35.79 233.33-36.38 233.82-36.89 234.3-37.4 234.79-37.65L234.79-37.65Q235.62-37.74 235.87-37.38 236.11-37.01 236.55-37.01L236.55-37.01Q237.23-36.87 237.48-36.57 237.72-36.28 237.97-36.04L237.97-36.04Q238.6-36.04 239.04-35.79 239.48-35.55 239.92-35.06L239.92-35.06Q239.72-34.52 239.41-34.08 239.09-33.64 238.84-33.15L238.84-33.15Q238.45-33.01 238.28-32.67 238.11-32.32 237.77-32.08L237.77-32.08Q237.23-31.25 236.7-30.44 236.16-29.64 235.62-28.91L235.62-28.91Q235.38-28.61 235.08-28.44 234.79-28.27 234.55-27.93L234.55-27.93Q234.45-27.78 234.4-27.61 234.35-27.44 234.25-27.29L234.25-27.29Q233.67-26.37 232.94-25.49 232.2-24.61 231.67-23.63L231.67-23.63Q231.42-23.29 231.28-22.92 231.13-22.56 230.93-22.22L230.93-22.22Q230.74-21.88 230.37-21.36 230.01-20.85 229.64-20.31 229.27-19.78 229.01-19.24 228.74-18.7 228.74-18.36L228.74-18.36Q228.79-18.12 229.37-17.38 229.96-16.65 230.69-15.82 231.42-14.99 232.08-14.23 232.74-13.48 232.89-13.33L232.89-13.33Q232.99-13.09 233.62-12.28 234.25-11.47 235.06-10.52 235.87-9.57 236.65-8.69 237.43-7.81 237.72-7.42L237.72-7.42 238.11-6.79Q238.21-6.84 238.62-7.47 239.04-8.11 239.48-8.89 239.92-9.67 240.29-10.35 240.65-11.04 240.75-11.23L240.75-11.23Q240.9-11.38 241.24-12.01 241.58-12.65 241.99-13.38 242.41-14.11 242.73-14.75 243.04-15.38 243.09-15.58L243.09-15.58 242.51-15.58Q241.73-15.58 240.97-15.5 240.21-15.43 239.43-15.19L239.43-15.19Q239.09-15.23 238.84-15.38 238.6-15.53 238.26-15.67L238.26-15.67Q238.11-16.16 238.14-16.36 238.16-16.55 238.11-16.65L238.11-16.65Q238.06-16.85 237.99-16.94 237.92-17.04 237.92-17.24L237.92-17.24Q237.92-17.58 237.82-17.8 237.72-18.02 237.62-18.31L237.62-18.31Q237.62-18.51 237.65-18.7 237.67-18.9 237.58-19.04L237.58-19.04Q237.67-19.92 237.43-20.31L237.43-20.31Q237.43-21 237.62-21.19 237.82-21.39 237.92-21.78L237.92-21.78Q238.36-21.63 238.67-21.85 238.99-22.07 239.33-22.07L239.33-22.07Q240.11-22.07 240.6-22.31L240.6-22.31Q241.04-22.36 241.51-22.36 241.97-22.36 242.41-22.46L242.41-22.46Q242.65-22.51 242.82-22.56 243-22.61 243.24-22.66L243.24-22.66Q243.53-22.71 243.87-22.71 244.22-22.71 244.51-22.71L244.51-22.71Q245.29-22.8 246.07-22.83 246.85-22.85 247.63-22.9L247.63-22.9Q247.88-22.8 248.1-22.75 248.32-22.71 248.51-22.61L248.51-22.61Q248.66-22.51 248.76-22.39 248.85-22.27 249.1-22.22L249.1-22.22Q249.34-21.97 249.44-21.73L249.44-21.73Q249.34-21.29 249.49-21.09L249.49-21.09Q249.25-20.85 249.22-20.43 249.2-20.02 249.15-19.68L249.15-19.68Q249.49-19.58 249.73-19.14 249.98-18.7 250.08-18.7L250.08-18.7ZM271.07-6.84L271.07-6.84Q271.46-6.2 271.65-5.62 271.85-5.03 271.85-4.79L271.85-4.79Q271.85-4.44 271.73-4.22 271.61-4 271.41-3.76L271.41-3.76Q269.46-2.93 267.53-2.22 265.6-1.51 263.6-0.83L263.6-0.83Q263.11-0.68 262.65-0.51 262.18-0.34 261.64-0.24L261.64-0.24Q261.55-0.15 261.3-0.05 261.06 0.05 260.74 0.15 260.42 0.24 260.13 0.32 259.84 0.39 259.74 0.39L259.74 0.39Q259.64 0.15 259.55 0.1 259.45 0.05 259.35 0L259.35 0Q259.11 0 259.03 0.17 258.96 0.34 258.72 0.44L258.72 0.44Q258.47 0.44 258.28 0.46 258.08 0.49 257.93 0.39L257.93 0.39Q257.54 0.49 257.23 0.73 256.91 0.98 256.52 1.07L256.52 1.07Q255.79 0.88 255.61 0.9 255.44 0.93 255.25 0.98L255.25 0.98Q254.91 0.68 254.93 0.15 254.96-0.39 254.66-0.73L254.66-0.73Q254.66-1.37 254.56-1.44 254.47-1.51 254.47-1.61L254.47-1.61Q254.47-1.95 254.52-2.25 254.56-2.54 254.47-2.88L254.47-2.88Q254.66-3.71 254.61-4.49 254.56-5.27 254.66-6.05L254.66-6.05Q254.66-6.3 254.69-6.52 254.71-6.74 254.71-6.98L254.71-6.98Q254.71-7.71 254.81-7.89 254.91-8.06 254.91-8.3L254.91-8.3Q254.91-8.64 254.88-8.96 254.86-9.28 254.86-9.67L254.86-9.67Q254.86-10.35 254.88-11.01 254.91-11.67 254.91-12.4L254.91-12.4Q254.91-14.26 254.66-16.11 254.42-17.97 254.42-19.82L254.42-19.82Q254.42-22.07 254.17-24.27 253.93-26.46 253.93-28.71L253.93-28.71Q253.93-29.1 253.93-29.81 253.93-30.52 253.93-31.27 253.93-32.03 253.95-32.71 253.98-33.4 254.03-33.69L254.03-33.69Q254.03-33.74 254.32-33.84 254.61-33.94 254.71-33.94L254.71-33.94Q254.96-33.94 255.1-33.81 255.25-33.69 255.44-33.59L255.44-33.59Q256.32-33.69 256.49-33.76 256.66-33.84 256.76-33.84L256.76-33.84Q257.06-33.84 257.23-33.69 257.4-33.54 257.49-33.54L257.49-33.54Q258.32-33.74 258.4-33.59 258.47-33.45 258.72-33.45L258.72-33.45Q259.35-33.64 259.5-33.59 259.64-33.54 259.79-33.54L259.79-33.54Q260.03-33.54 260.33-33.72 260.62-33.89 260.86-33.98L260.86-33.98Q261.69-34.23 262.23-34.47L262.23-34.47Q262.96-34.91 263.33-35.06 263.7-35.21 264.09-35.4L264.09-35.4Q264.92-35.74 265.67-36.11 266.43-36.47 267.26-36.87L267.26-36.87Q267.41-36.87 267.58-36.89 267.75-36.91 267.85-37.01L267.85-37.01Q267.99-36.96 268.16-36.96 268.33-36.96 268.48-36.96L268.48-36.96Q268.97-36.77 269.12-36.72L269.12-36.72Q269.31-36.43 269.48-36.16 269.65-35.89 269.9-35.64L269.9-35.64Q270.14-35.21 270.29-35.21L270.29-35.21Q270.29-35.06 270.14-34.89 269.99-34.72 269.99-34.57L269.99-34.57Q270.39-33.89 270.63-33.3 270.87-32.71 270.87-32.47L270.87-32.47Q270.87-32.13 270.78-31.91 270.68-31.69 270.53-31.45L270.53-31.45Q268.68-30.57 266.8-29.71 264.92-28.86 262.96-28.03L262.96-28.03Q262.48-27.83 262.04-27.61 261.6-27.39 261.06-27.29L261.06-27.29Q260.96-27.2 260.62-27.12 260.28-27.05 260.08-27.05L260.08-27.05Q260.18-26.22 260.2-25.42 260.23-24.61 260.28-23.78L260.28-23.78Q260.33-23.1 260.45-22.34 260.57-21.58 260.67-20.85L260.67-20.85Q262.28-21.53 263.87-22.22 265.45-22.9 267.06-23.58L267.06-23.58Q267.36-23.54 267.68-23.49 267.99-23.44 268.29-23.34L268.29-23.34Q268.38-23.24 268.48-23.1 268.58-22.95 268.73-22.85L268.73-22.85Q268.68-22.61 269.04-22.12 269.41-21.63 269.41-21.39L269.41-21.39Q269.41-21 269.51-20.92 269.6-20.85 269.7-20.51L269.7-20.51Q269.75-20.02 269.7-19.97L269.7-19.97Q269.95-19.73 270.09-19.48 270.24-19.24 270.24-18.9L270.24-18.9Q269.56-18.07 268.87-17.8 268.19-17.53 267.5-17.24L267.5-17.24Q267.26-17.14 266.99-16.97 266.72-16.8 266.48-16.7L266.48-16.7Q266.09-16.55 265.72-16.43 265.36-16.31 264.97-16.11L264.97-16.11Q264.33-15.77 263.67-15.36 263.01-14.94 262.33-14.79L262.33-14.79Q261.79-14.65 261.62-14.48 261.45-14.31 261.06-14.01L261.06-14.01 261.06-12.7 261.06-10.25Q261.06-9.77 261.06-9.25 261.06-8.74 261.01-8.2L261.01-8.2Q260.91-7.71 260.91-7.37L260.91-7.37 260.91-6.59Q261.16-6.69 261.4-6.76 261.64-6.84 261.89-6.93L261.89-6.93Q262.08-6.98 262.26-6.98 262.43-6.98 262.62-7.08L262.62-7.08Q262.87-7.13 263.01-7.18 263.16-7.23 263.35-7.32L263.35-7.32Q264.09-7.71 264.48-7.84 264.87-7.96 265.26-8.11L265.26-8.11Q266.09-8.4 266.87-8.72 267.65-9.03 268.43-9.33L268.43-9.33Q268.92-9.23 269.12-9.47L269.12-9.47Q269.36-9.42 269.53-9.38 269.7-9.33 269.95-9.33L269.95-9.33Q270.53-8.79 270.68-8.5 270.82-8.2 271.07-7.96L271.07-7.96Q271.31-7.52 271.41-7.52L271.41-7.52Q271.41-7.42 271.26-7.2 271.12-6.98 271.07-6.84ZM297.38-36.67L297.38-36.67Q297.92-36.67 298.17-36.52L298.17-36.52Q298.41-36.04 298.48-35.67 298.56-35.3 298.56-34.81L298.56-34.81Q298.61-34.08 298.58-33.76 298.56-33.45 298.51-33.11L298.51-33.11Q298.46-32.32 298.46-31.62 298.46-30.91 298.46-30.13L298.46-30.13Q298.46-28.42 298.51-26.66 298.56-24.9 298.56-23.19L298.56-23.19Q298.56-22.51 298.53-21.85 298.51-21.19 298.51-20.51L298.51-20.51Q298.51-20.36 298.53-20.19 298.56-20.02 298.56-19.87L298.56-19.87Q298.56-19.43 298.53-19.02 298.51-18.6 298.51-18.21L298.51-18.21Q298.51-18.02 298.51-17.87 298.51-17.72 298.56-17.48L298.56-17.48Q298.46-17.09 298.46-16.94L298.46-16.94Q298.46-16.16 298.51-15.36 298.56-14.55 298.56-13.77L298.56-13.77Q298.56-13.04 298.58-12.35 298.61-11.67 298.61-10.94L298.61-10.94Q298.61-10.55 298.58-10.11 298.56-9.67 298.56-9.23L298.56-9.23Q298.56-8.2 298.61-7.15 298.65-6.1 298.7-5.08L298.7-5.08Q298.7-4.39 298.7-3.74 298.7-3.08 298.8-2.39L298.8-2.39Q298.8-1.61 298.73-1.25 298.65-0.88 298.56-0.54L298.56-0.54Q298.17-0.44 298.04-0.46 297.92-0.49 297.78-0.49L297.78-0.49Q297.09-0.29 296.9-0.12 296.7 0.05 296.46 0.24L296.46 0.24Q296.26 0.24 295.99 0.27 295.72 0.29 295.58 0.44L295.58 0.44Q295.33 0.34 295.19 0.39 295.04 0.44 294.89 0.44L294.89 0.44Q294.21 0.49 293.97 0.61 293.72 0.73 293.28 0.73L293.28 0.73Q292.89 0.1 292.7-0.27 292.5-0.63 292.06-0.59L292.06-0.59Q291.43-1.56 291.16-2.64 290.89-3.71 290.26-4.59L290.26-4.59Q290.21-4.98 290.11-5.08 290.01-5.18 289.91-5.47L289.91-5.47Q289.72-5.86 289.57-6.3 289.43-6.74 289.18-7.13L289.18-7.13Q288.79-7.96 288.4-8.76 288.01-9.57 287.67-10.45L287.67-10.45Q287.52-10.84 287.42-11.25 287.33-11.67 287.18-12.06L287.18-12.06Q287.08-12.26 286.96-12.45 286.84-12.65 286.74-12.79L286.74-12.79Q286.45-13.33 286.18-13.87 285.91-14.4 285.57-14.94L285.57-14.94Q285.47-15.19 285.3-15.41 285.13-15.63 284.93-15.87L284.93-15.87Q284.79-16.21 284.66-16.55 284.54-16.89 284.4-17.24L284.4-17.24Q284.3-17.53 284.1-17.85 283.91-18.16 283.81-18.46L283.81-18.46Q283.71-18.7 283.66-18.95 283.62-19.19 283.37-19.38L283.37-19.38Q283.03-18.8 283.03-18.6L283.03-18.6Q282.98-18.02 282.96-17.65 282.93-17.29 282.93-16.99L282.93-16.99Q282.93-16.65 283-16.33 283.08-16.02 283.08-15.72L283.08-15.72Q283.18-14.55 283.22-13.35 283.27-12.16 283.27-10.99L283.27-10.99Q283.22-10.06 283.25-9.57 283.27-9.08 283.32-8.59L283.32-8.59Q283.37-8.11 283.35-7.59 283.32-7.08 283.37-6.59L283.37-6.59Q283.37-5.47 283.4-4.42 283.42-3.37 283.42-2.25L283.42-2.25 283.42-1.07Q283.42-0.54 283.27-0.1L283.27-0.1Q282.54-0.1 282.32-0.15 282.1-0.2 281.86-0.29L281.86-0.29Q281.56-0.24 281.39-0.07 281.22 0.1 280.98 0.24L280.98 0.24Q280.44 0.2 280.39 0.27 280.34 0.34 280.2 0.44L280.2 0.44Q280.05 0.49 279.93 0.44 279.81 0.39 279.66 0.39L279.66 0.39Q279.27 0.29 279.03 0.29L279.03 0.29Q278.73 0.39 278.46 0.49 278.2 0.59 277.9 0.63L277.9 0.63Q277.61 0.1 277.56-0.63 277.51-1.37 277.17-1.9L277.17-1.9Q277.27-2.1 277.29-2.15 277.32-2.2 277.32-2.44L277.32-2.44Q277.32-3.56 277.27-4.69 277.22-5.81 277.22-6.93L277.22-6.93Q277.22-7.86 277.1-8.74 276.97-9.62 276.97-10.55L276.97-10.55Q276.97-10.84 277.02-11.13 277.07-11.43 277.07-11.77L277.07-11.77Q277.07-11.91 277.05-12.06 277.02-12.21 277.02-12.3L277.02-12.3Q276.93-13.18 276.9-14.11 276.88-15.04 276.88-15.97L276.88-15.97Q276.83-16.5 276.8-17.09 276.78-17.68 276.78-18.31L276.78-18.31Q276.78-18.55 276.83-18.85 276.88-19.14 276.88-19.43L276.88-19.43 276.88-21.48Q276.78-22.07 276.8-22.27 276.83-22.46 276.83-22.66L276.83-22.66Q276.83-23.1 276.75-23.51 276.68-23.93 276.68-24.41L276.68-24.41Q276.68-24.76 276.75-25.07 276.83-25.39 276.83-25.73L276.83-25.73Q276.83-26.46 276.75-27.15 276.68-27.83 276.68-28.56L276.68-28.56 276.68-32.71Q276.68-33.06 276.63-33.4 276.58-33.74 276.58-34.13L276.58-34.13Q276.88-34.81 277.12-34.84 277.37-34.86 277.56-35.01L277.56-35.01Q278.1-34.91 278.49-35.11L278.49-35.11Q279.12-35.06 279.27-35.25L279.27-35.25Q279.37-35.16 279.54-35.18 279.71-35.21 279.86-35.16L279.86-35.16Q280-35.25 280.1-35.35 280.2-35.45 280.39-35.55L280.39-35.55Q280.93-35.84 281.03-35.91 281.12-35.99 281.27-36.08L281.27-36.08Q281.52-36.08 281.59-35.94 281.66-35.79 281.91-35.79L281.91-35.79Q282-35.6 282.15-35.4 282.3-35.21 282.49-35.11L282.49-35.11Q282.88-34.28 283.42-33.69L283.42-33.69Q283.86-32.42 284.42-31.25 284.98-30.08 285.62-28.91L285.62-28.91Q285.62-28.76 285.67-28.54 285.71-28.32 285.76-28.22L285.76-28.22Q286.01-27.69 286.47-26.83 286.94-25.98 287.28-25.44L287.28-25.44Q287.37-25.24 287.52-25.1 287.67-24.95 287.77-24.76L287.77-24.76Q287.91-24.51 288.01-24.22 288.11-23.93 288.25-23.68L288.25-23.68Q288.5-23.1 288.82-22.53 289.13-21.97 289.47-21.39L289.47-21.39Q289.57-21.09 289.69-20.8 289.82-20.51 289.96-20.21L289.96-20.21Q290.35-19.34 290.67-18.87 290.99-18.41 291.13-17.87L291.13-17.87Q291.48-17.48 291.67-17.02 291.87-16.55 292.26-16.26L292.26-16.26Q292.31-16.5 292.36-17.7 292.4-18.9 292.4-20.31 292.4-21.73 292.4-23 292.4-24.27 292.4-24.71L292.4-24.71Q292.4-26.03 292.36-27.32 292.31-28.61 292.31-29.88L292.31-29.88Q292.31-30.91 292.33-31.96 292.36-33.01 292.4-34.03L292.4-34.03Q292.45-34.57 292.43-35.03 292.4-35.5 292.45-35.99L292.45-35.99Q292.5-36.23 292.65-36.47 292.79-36.72 292.89-36.96L292.89-36.96Q293.53-37.06 293.87-36.72L293.87-36.72Q294.16-36.87 294.58-36.87 294.99-36.87 295.29-36.91L295.29-36.91Q295.68-36.96 295.72-36.99 295.77-37.01 295.87-37.01L295.87-37.01Q296.07-36.91 296.24-36.87 296.41-36.82 296.65-36.72L296.65-36.72Q297.09-36.87 297.38-36.67ZM319.84-5.62L319.84-5.62Q319.75-5.32 319.75-5.08L319.75-5.08Q319.75-4.79 319.82-4.49 319.89-4.2 319.89-3.91L319.89-3.91Q319.79-3.03 319.75-2.83L319.75-2.83Q319.45-2.59 318.55-2.27 317.65-1.95 316.4-1.64 315.16-1.32 313.72-1 312.27-0.68 310.96-0.39 309.64-0.1 308.54 0.12 307.44 0.34 306.9 0.44L306.9 0.44Q306.66 0.49 306.44 0.56 306.22 0.63 305.98 0.73L305.98 0.73Q305.73 0.78 305.49 0.76 305.24 0.73 305 0.83L305 0.83Q304.85 0.83 304.73 0.68 304.61 0.54 304.51 0.44L304.51 0.44Q304.51 0.15 304.41 0 304.32-0.15 304.19-0.24 304.07-0.34 303.97-0.46 303.88-0.59 303.88-0.88L303.88-0.88Q303.78-1.27 303.61-1.49 303.44-1.71 303.44-1.9L303.44-1.9Q303.24-2.54 303.24-3.03L303.24-3.03Q303.24-3.27 303.29-3.42 303.34-3.56 303.44-3.71L303.44-3.71Q303.73-3.81 303.88-3.96 304.02-4.1 304.27-4.2L304.27-4.2Q304.56-4.35 305.1-4.47 305.63-4.59 306.27-4.74 306.9-4.88 307.49-5.03 308.08-5.18 308.47-5.32L308.47-5.32Q308.61-5.37 308.76-5.37 308.91-5.37 309-5.47L309-5.47Q308.91-6.25 308.88-7.03 308.86-7.81 308.76-8.54L308.76-8.54Q308.76-8.89 308.71-9.23 308.66-9.57 308.66-9.86L308.66-9.86 308.71-10.89Q308.71-12.74 308.56-14.6 308.42-16.46 308.42-18.31L308.42-18.31 308.42-19.97Q308.42-20.36 308.39-20.7 308.37-21.04 308.37-21.44L308.37-21.44Q308.37-22.36 308.39-23.22 308.42-24.07 308.42-25L308.42-25 308.42-29.49Q307.34-29.74 306.42-29.47 305.49-29.2 304.51-29.1L304.51-29.1Q304.17-29.44 304.12-29.83L304.12-29.83Q303.73-30.37 303.58-30.52 303.44-30.66 303.24-31.35L303.24-31.35Q302.9-32.03 302.68-32.2 302.46-32.37 302.46-32.76L302.46-32.76Q302.46-33.01 302.58-33.11 302.7-33.2 302.8-33.45L302.8-33.45Q303.24-33.64 303.31-33.72 303.39-33.79 303.49-33.84L303.49-33.84Q303.97-34.18 304.61-34.33 305.24-34.47 305.83-34.67L305.83-34.67Q306.32-34.81 306.76-35.01 307.2-35.21 307.73-35.35L307.73-35.35Q308.37-35.55 309-35.74 309.64-35.94 310.22-36.08L310.22-36.08Q310.61-36.18 310.98-36.16 311.35-36.13 311.74-36.38L311.74-36.38Q312.37-36.28 313.08-36.4 313.79-36.52 314.62-36.72 315.45-36.91 316.23-37.06 317.01-37.21 317.4-37.3L317.4-37.3Q317.65-37.21 317.74-37.06 317.84-36.91 318.04-36.87L318.04-36.87Q318.09-36.72 318.13-36.5 318.18-36.28 318.33-36.18L318.33-36.18Q318.33-35.64 318.57-35.4L318.57-35.4Q318.52-34.91 318.74-34.3 318.96-33.69 318.96-33.15L318.96-33.15Q318.72-32.42 318.16-32.23 317.6-32.03 316.94-31.88 316.28-31.74 315.64-31.62 315.01-31.49 314.62-31.35L314.62-31.35Q314.62-30.66 314.64-29.93 314.67-29.2 314.67-28.47L314.67-28.47Q314.67-27.78 314.64-27.1 314.62-26.42 314.62-25.73L314.62-25.73Q314.62-24.71 314.59-23.63 314.57-22.56 314.57-21.48L314.57-21.48Q314.57-19.97 314.62-18.46 314.67-16.94 314.76-15.43L314.76-15.43Q314.81-15.19 314.81-14.7L314.81-14.7Q314.81-12.74 314.89-10.86 314.96-8.98 315.16-6.98L315.16-6.98Q315.79-6.93 316.13-7.18L316.13-7.18Q316.38-7.18 316.6-7.28 316.82-7.37 317.01-7.47L317.01-7.47Q317.3-7.52 317.82-7.64 318.33-7.76 318.48-7.76L318.48-7.76Q318.92-7.71 319.01-7.76L319.01-7.76Q319.16-7.47 319.45-7.32L319.45-7.32Q319.55-6.88 319.62-6.47 319.7-6.05 319.84-5.62ZM341.47-6.84L341.47-6.84Q341.86-6.2 342.06-5.62 342.25-5.03 342.25-4.79L342.25-4.79Q342.25-4.44 342.13-4.22 342.01-4 341.81-3.76L341.81-3.76Q339.86-2.93 337.93-2.22 336-1.51 334-0.83L334-0.83Q333.51-0.68 333.05-0.51 332.58-0.34 332.05-0.24L332.05-0.24Q331.95-0.15 331.71-0.05 331.46 0.05 331.14 0.15 330.83 0.24 330.53 0.32 330.24 0.39 330.14 0.39L330.14 0.39Q330.05 0.15 329.95 0.1 329.85 0.05 329.75 0L329.75 0Q329.51 0 329.44 0.17 329.36 0.34 329.12 0.44L329.12 0.44Q328.87 0.44 328.68 0.46 328.48 0.49 328.34 0.39L328.34 0.39Q327.95 0.49 327.63 0.73 327.31 0.98 326.92 1.07L326.92 1.07Q326.19 0.88 326.02 0.9 325.85 0.93 325.65 0.98L325.65 0.98Q325.31 0.68 325.33 0.15 325.36-0.39 325.07-0.73L325.07-0.73Q325.07-1.37 324.97-1.44 324.87-1.51 324.87-1.61L324.87-1.61Q324.87-1.95 324.92-2.25 324.97-2.54 324.87-2.88L324.87-2.88Q325.07-3.71 325.02-4.49 324.97-5.27 325.07-6.05L325.07-6.05Q325.07-6.3 325.09-6.52 325.11-6.74 325.11-6.98L325.11-6.98Q325.11-7.71 325.21-7.89 325.31-8.06 325.31-8.3L325.31-8.3Q325.31-8.64 325.28-8.96 325.26-9.28 325.26-9.67L325.26-9.67Q325.26-10.35 325.28-11.01 325.31-11.67 325.31-12.4L325.31-12.4Q325.31-14.26 325.07-16.11 324.82-17.97 324.82-19.82L324.82-19.82Q324.82-22.07 324.58-24.27 324.33-26.46 324.33-28.71L324.33-28.71Q324.33-29.1 324.33-29.81 324.33-30.52 324.33-31.27 324.33-32.03 324.36-32.71 324.38-33.4 324.43-33.69L324.43-33.69Q324.43-33.74 324.72-33.84 325.02-33.94 325.11-33.94L325.11-33.94Q325.36-33.94 325.5-33.81 325.65-33.69 325.85-33.59L325.85-33.59Q326.73-33.69 326.9-33.76 327.07-33.84 327.16-33.84L327.16-33.84Q327.46-33.84 327.63-33.69 327.8-33.54 327.9-33.54L327.9-33.54Q328.73-33.74 328.8-33.59 328.87-33.45 329.12-33.45L329.12-33.45Q329.75-33.64 329.9-33.59 330.05-33.54 330.19-33.54L330.19-33.54Q330.44-33.54 330.73-33.72 331.02-33.89 331.27-33.98L331.27-33.98Q332.1-34.23 332.63-34.47L332.63-34.47Q333.37-34.91 333.73-35.06 334.1-35.21 334.49-35.4L334.49-35.4Q335.32-35.74 336.08-36.11 336.83-36.47 337.66-36.87L337.66-36.87Q337.81-36.87 337.98-36.89 338.15-36.91 338.25-37.01L338.25-37.01Q338.4-36.96 338.57-36.96 338.74-36.96 338.88-36.96L338.88-36.96Q339.37-36.77 339.52-36.72L339.52-36.72Q339.71-36.43 339.88-36.16 340.06-35.89 340.3-35.64L340.3-35.64Q340.54-35.21 340.69-35.21L340.69-35.21Q340.69-35.06 340.54-34.89 340.4-34.72 340.4-34.57L340.4-34.57Q340.79-33.89 341.03-33.3 341.28-32.71 341.28-32.47L341.28-32.47Q341.28-32.13 341.18-31.91 341.08-31.69 340.93-31.45L340.93-31.45Q339.08-30.57 337.2-29.71 335.32-28.86 333.37-28.03L333.37-28.03Q332.88-27.83 332.44-27.61 332-27.39 331.46-27.29L331.46-27.29Q331.36-27.2 331.02-27.12 330.68-27.05 330.49-27.05L330.49-27.05Q330.58-26.22 330.61-25.42 330.63-24.61 330.68-23.78L330.68-23.78Q330.73-23.1 330.85-22.34 330.97-21.58 331.07-20.85L331.07-20.85Q332.68-21.53 334.27-22.22 335.86-22.9 337.47-23.58L337.47-23.58Q337.76-23.54 338.08-23.49 338.4-23.44 338.69-23.34L338.69-23.34Q338.79-23.24 338.88-23.1 338.98-22.95 339.13-22.85L339.13-22.85Q339.08-22.61 339.45-22.12 339.81-21.63 339.81-21.39L339.81-21.39Q339.81-21 339.91-20.92 340.01-20.85 340.1-20.51L340.1-20.51Q340.15-20.02 340.1-19.97L340.1-19.97Q340.35-19.73 340.49-19.48 340.64-19.24 340.64-18.9L340.64-18.9Q339.96-18.07 339.27-17.8 338.59-17.53 337.91-17.24L337.91-17.24Q337.66-17.14 337.39-16.97 337.13-16.8 336.88-16.7L336.88-16.7Q336.49-16.55 336.12-16.43 335.76-16.31 335.37-16.11L335.37-16.11Q334.73-15.77 334.07-15.36 333.41-14.94 332.73-14.79L332.73-14.79Q332.19-14.65 332.02-14.48 331.85-14.31 331.46-14.01L331.46-14.01 331.46-12.7 331.46-10.25Q331.46-9.77 331.46-9.25 331.46-8.74 331.41-8.2L331.41-8.2Q331.32-7.71 331.32-7.37L331.32-7.37 331.32-6.59Q331.56-6.69 331.8-6.76 332.05-6.84 332.29-6.93L332.29-6.93Q332.49-6.98 332.66-6.98 332.83-6.98 333.02-7.08L333.02-7.08Q333.27-7.13 333.41-7.18 333.56-7.23 333.76-7.32L333.76-7.32Q334.49-7.71 334.88-7.84 335.27-7.96 335.66-8.11L335.66-8.11Q336.49-8.4 337.27-8.72 338.05-9.03 338.83-9.33L338.83-9.33Q339.32-9.23 339.52-9.47L339.52-9.47Q339.76-9.42 339.93-9.38 340.1-9.33 340.35-9.33L340.35-9.33Q340.93-8.79 341.08-8.5 341.23-8.2 341.47-7.96L341.47-7.96Q341.72-7.52 341.81-7.52L341.81-7.52Q341.81-7.42 341.67-7.2 341.52-6.98 341.47-6.84Z" opacity="1" transform="matrix(1,0,0,1,0,0)" fill="#000000" class="undefined-text-0" data-fill-palette-color="primary" id="text-0"></path></svg></g></svg></g></svg></g></svg></g><g></g></svg></g></svg></g></svg></g></svg></g><defs></defs></svg><rect width="320" height="360" fill="none" stroke="none" visibility="hidden"></rect></g></svg></g></svg>